<svg id="my-svg" width="100%" xmlns="http://www.w3.org/2000/svg" xmlns:xlink="http://www.w3.org/1999/xlink" class="erDiagram" style="max-width: 753.844px; background-color: white;" viewBox="0 0 753.84375 1115.75" role="graphics-document document" aria-roledescription="er"><style>#my-svg{font-family:"trebuchet ms",verdana,arial,sans-serif;font-size:16px;fill:#000000;}@keyframes edge-animation-frame{from{stroke-dashoffset:0;}}@keyframes dash{to{stroke-dashoffset:0;}}#my-svg .edge-animation-slow{stroke-dasharray:9,5!important;stroke-dashoffset:900;animation:dash 50s linear infinite;stroke-linecap:round;}#my-svg .edge-animation-fast{stroke-dasharray:9,5!important;stroke-dashoffset:900;animation:dash 20s linear infinite;stroke-linecap:round;}#my-svg .error-icon{fill:#552222;}#my-svg .error-text{fill:#552222;stroke:#552222;}#my-svg .edge-thickness-normal{stroke-width:1px;}#my-svg .edge-thickness-thick{stroke-width:3.5px;}#my-svg .edge-pattern-solid{stroke-dasharray:0;}#my-svg .edge-thickness-invisible{stroke-width:0;fill:none;}#my-svg .edge-pattern-dashed{stroke-dasharray:3;}#my-svg .edge-pattern-dotted{stroke-dasharray:2;}#my-svg .marker{fill:#000000;stroke:#000000;}#my-svg .marker.cross{stroke:#000000;}#my-svg svg{font-family:"trebuchet ms",verdana,arial,sans-serif;font-size:16px;}#my-svg p{margin:0;}#my-svg .entityBox{fill:#cde498;stroke:#13540c;}#my-svg .relationshipLabelBox{fill:hsl(78.1578947368, 58.4615384615%, 84.5098039216%);opacity:0.7;background-color:hsl(78.1578947368, 58.4615384615%, 84.5098039216%);}#my-svg .relationshipLabelBox rect{opacity:0.5;}#my-svg .labelBkg{background-color:rgba(224.6153846155, 238.5923076923, 192.4076923078, 0.5);}#my-svg .edgeLabel .label{fill:#13540c;font-size:14px;}#my-svg .label{font-family:"trebuchet ms",verdana,arial,sans-serif;color:#000000;}#my-svg .edge-pattern-dashed{stroke-dasharray:8,8;}#my-svg .node rect,#my-svg .node circle,#my-svg .node ellipse,#my-svg .node polygon{fill:#cde498;stroke:#13540c;stroke-width:1px;}#my-svg .relationshipLine{stroke:#000000;stroke-width:1;fill:none;}#my-svg .marker{fill:none!important;stroke:#000000!important;stroke-width:1;}#my-svg :root{--mermaid-font-family:"trebuchet ms",verdana,arial,sans-serif;}</style><g><defs><marker id="my-svg_er-onlyOneStart" class="marker onlyOne er" refX="0" refY="9" markerWidth="18" markerHeight="18" orient="auto"><path d="M9,0 L9,18 M15,0 L15,18"/></marker></defs><defs><marker id="my-svg_er-onlyOneEnd" class="marker onlyOne er" refX="18" refY="9" markerWidth="18" markerHeight="18" orient="auto"><path d="M3,0 L3,18 M9,0 L9,18"/></marker></defs><defs><marker id="my-svg_er-zeroOrOneStart" class="marker zeroOrOne er" refX="0" refY="9" markerWidth="30" markerHeight="18" orient="auto"><circle fill="white" cx="21" cy="9" r="6"/><path d="M9,0 L9,18"/></marker></defs><defs><marker id="my-svg_er-zeroOrOneEnd" class="marker zeroOrOne er" refX="30" refY="9" markerWidth="30" markerHeight="18" orient="auto"><circle fill="white" cx="9" cy="9" r="6"/><path d="M21,0 L21,18"/></marker></defs><defs><marker id="my-svg_er-oneOrMoreStart" class="marker oneOrMore er" refX="18" refY="18" markerWidth="45" markerHeight="36" orient="auto"><path d="M0,18 Q 18,0 36,18 Q 18,36 0,18 M42,9 L42,27"/></marker></defs><defs><marker id="my-svg_er-oneOrMoreEnd" class="marker oneOrMore er" refX="27" refY="18" markerWidth="45" markerHeight="36" orient="auto"><path d="M3,9 L3,27 M9,18 Q27,0 45,18 Q27,36 9,18"/></marker></defs><defs><marker id="my-svg_er-zeroOrMoreStart" class="marker zeroOrMore er" refX="18" refY="18" markerWidth="57" markerHeight="36" orient="auto"><circle fill="white" cx="48" cy="18" r="6"/><path d="M0,18 Q18,0 36,18 Q18,36 0,18"/></marker></defs><defs><marker id="my-svg_er-zeroOrMoreEnd" class="marker zeroOrMore er" refX="39" refY="18" markerWidth="57" markerHeight="36" orient="auto"><circle fill="white" cx="9" cy="18" r="6"/><path d="M21,18 Q39,0 57,18 Q39,36 21,18"/></marker></defs><g class="root"><g class="clusters"/><g class="edgePaths"><path d="M372.545,221.75L370.456,230.167C368.366,238.583,364.187,255.417,363.342,272.25C362.497,289.083,364.986,305.917,366.23,314.333L367.474,322.75" id="id_entity-Account-2_entity-User-3_0" class="edge-thickness-normal edge-pattern-solid relationshipLine" style="undefined;;;undefined" data-edge="true" data-et="edge" data-id="id_entity-Account-2_entity-User-3_0" data-points="W3sieCI6MzcyLjU0NTA2OTI1MTM5LCJ5IjoyMjEuNzV9LHsieCI6MzYwLjAwNzgxMjUsInkiOjI3Mi4yNX0seyJ4IjozNjcuNDc0NDE5MDUxNTYxMDMsInkiOjMyMi43NX1d" marker-start="url(#my-svg_er-zeroOrOneStart)" marker-end="url(#my-svg_er-onlyOneEnd)"/><path d="M399.078,221.75L399.078,230.167C399.078,238.583,399.078,255.417,399.078,272.25C399.078,289.083,399.078,305.917,399.078,314.333L399.078,322.75" id="id_entity-Account-2_entity-User-3_1" class="edge-thickness-normal edge-pattern-solid relationshipLine" style="undefined;;;undefined" data-edge="true" data-et="edge" data-id="id_entity-Account-2_entity-User-3_1" data-points="W3sieCI6Mzk5LjA3ODEyNSwieSI6MjIxLjc1fSx7IngiOjM5OS4wNzgxMjUsInkiOjI3Mi4yNX0seyJ4IjozOTkuMDc4MTI1LCJ5IjozMjIuNzV9XQ==" marker-start="url(#my-svg_er-zeroOrMoreStart)" marker-end="url(#my-svg_er-zeroOrMoreEnd)"/><path d="M259.094,707.174L246.302,722.77C233.51,738.366,207.927,769.558,195.135,793.571C182.344,817.583,182.344,834.417,182.344,842.833L182.344,851.25" id="id_entity-User-3_entity-Role-0_2" class="edge-thickness-normal edge-pattern-solid relationshipLine" style="undefined;;;undefined" data-edge="true" data-et="edge" data-id="id_entity-User-3_entity-Role-0_2" data-points="W3sieCI6MjU5LjA5Mzc1LCJ5Ijo3MDcuMTczNzYxODA1MjA1MX0seyJ4IjoxODIuMzQzNzUsInkiOjgwMC43NX0seyJ4IjoxODIuMzQzNzUsInkiOjg1MS4yNX1d" marker-start="url(#my-svg_er-zeroOrOneStart)" marker-end="url(#my-svg_er-onlyOneEnd)"/><path d="M539.063,702.985L552.763,719.279C566.464,735.573,593.865,768.162,607.565,799.997C621.266,831.833,621.266,862.917,621.266,878.458L621.266,894" id="id_entity-User-3_entity-UserStatus-1_3" class="edge-thickness-normal edge-pattern-solid relationshipLine" style="undefined;;;undefined" data-edge="true" data-et="edge" data-id="id_entity-User-3_entity-UserStatus-1_3" data-points="W3sieCI6NTM5LjA2MjUsInkiOjcwMi45ODQ5MzMxOTI2ODY0fSx7IngiOjYyMS4yNjU2MjUsInkiOjgwMC43NX0seyJ4Ijo2MjEuMjY1NjI1LCJ5Ijo4OTR9XQ==" marker-start="url(#my-svg_er-zeroOrOneStart)" marker-end="url(#my-svg_er-onlyOneEnd)"/><path d="M435.093,322.75L436.511,314.333C437.929,305.917,440.765,289.083,439.802,272.25C438.839,255.417,434.077,238.583,431.696,230.167L429.314,221.75" id="id_entity-User-3_entity-Account-2_4" class="edge-thickness-normal edge-pattern-solid relationshipLine" style="undefined;;;undefined" data-edge="true" data-et="edge" data-id="id_entity-User-3_entity-Account-2_4" data-points="W3sieCI6NDM1LjA5MjgyNjA5OTgxMDgsInkiOjMyMi43NX0seyJ4Ijo0NDMuNjAxNTYyNSwieSI6MjcyLjI1fSx7IngiOjQyOS4zMTQ0NTQ2NzYzMzA0LCJ5IjoyMjEuNzV9XQ==" marker-start="url(#my-svg_er-zeroOrOneStart)" marker-end="url(#my-svg_er-zeroOrOneEnd)"/></g><g class="edgeLabels"><g class="edgeLabel" transform="translate(360.0078125, 272.25)"><g class="label" data-id="id_entity-Account-2_entity-User-3_0" transform="translate(-19.0703125, -10.5)"><foreignObject width="38.140625" height="21"><div xmlns="http://www.w3.org/1999/xhtml" class="labelBkg" style="display: table-cell; white-space: nowrap; line-height: 1.5; max-width: 200px; text-align: center;"><span class="edgeLabel"><p>owner</p></span></div></foreignObject></g></g><g class="edgeLabel"><g class="label" data-id="id_entity-Account-2_entity-User-3_1" transform="translate(0, 0)"><foreignObject width="0" height="0"><div xmlns="http://www.w3.org/1999/xhtml" class="labelBkg" style="display: table-cell; white-space: nowrap; line-height: 1.5; max-width: 200px; text-align: center;"><span class="edgeLabel"></span></div></foreignObject></g></g><g class="edgeLabel" transform="translate(182.34375, 800.75)"><g class="label" data-id="id_entity-User-3_entity-Role-0_2" transform="translate(-31.1328125, -10.5)"><foreignObject width="62.265625" height="21"><div xmlns="http://www.w3.org/1999/xhtml" class="labelBkg" style="display: table-cell; white-space: nowrap; line-height: 1.5; max-width: 200px; text-align: center;"><span class="edgeLabel"><p>enum:role</p></span></div></foreignObject></g></g><g class="edgeLabel" transform="translate(621.265625, 800.75)"><g class="label" data-id="id_entity-User-3_entity-UserStatus-1_3" transform="translate(-38.1328125, -10.5)"><foreignObject width="76.265625" height="21"><div xmlns="http://www.w3.org/1999/xhtml" class="labelBkg" style="display: table-cell; white-space: nowrap; line-height: 1.5; max-width: 200px; text-align: center;"><span class="edgeLabel"><p>enum:status</p></span></div></foreignObject></g></g><g class="edgeLabel" transform="translate(443.6015625, 272.25)"><g class="label" data-id="id_entity-User-3_entity-Account-2_4" transform="translate(-24.5234375, -10.5)"><foreignObject width="49.046875" height="21"><div xmlns="http://www.w3.org/1999/xhtml" class="labelBkg" style="display: table-cell; white-space: nowrap; line-height: 1.5; max-width: 200px; text-align: center;"><span class="edgeLabel"><p>account</p></span></div></foreignObject></g></g></g><g class="nodes"><g class="node default" id="entity-Role-0" transform="translate(182.34375, 979.5)"><g style=""><path d="M-174.34375 -128.25 L174.34375 -128.25 L174.34375 128.25 L-174.34375 128.25" stroke="none" stroke-width="0" fill="#cde498"/><path d="M-174.34375 -128.25 C-41.074535421362015 -128.25, 92.19467915727597 -128.25, 174.34375 -128.25 M-174.34375 -128.25 C-82.61999857331189 -128.25, 9.103752853376221 -128.25, 174.34375 -128.25 M174.34375 -128.25 C174.34375 -52.80496806984765, 174.34375 22.640063860304707, 174.34375 128.25 M174.34375 -128.25 C174.34375 -61.08834377483235, 174.34375 6.073312450335294, 174.34375 128.25 M174.34375 128.25 C93.23074199965303 128.25, 12.117733999306068 128.25, -174.34375 128.25 M174.34375 128.25 C104.56092635623885 128.25, 34.778102712477704 128.25, -174.34375 128.25 M-174.34375 128.25 C-174.34375 43.87716825190223, -174.34375 -40.49566349619553, -174.34375 -128.25 M-174.34375 128.25 C-174.34375 31.75377464120102, -174.34375 -64.74245071759796, -174.34375 -128.25" stroke="#13540c" stroke-width="1.3" fill="none" stroke-dasharray="0 0"/></g><g style="" class="row-rect-odd"><path d="M-174.34375 -85.5 L174.34375 -85.5 L174.34375 -42.75 L-174.34375 -42.75" stroke="none" stroke-width="0" fill="hsl(78.1578947368, 58.4615384615%, 100%)"/><path d="M-174.34375 -85.5 C-96.15548421382888 -85.5, -17.96721842765777 -85.5, 174.34375 -85.5 M-174.34375 -85.5 C-77.03767019939038 -85.5, 20.268409601219247 -85.5, 174.34375 -85.5 M174.34375 -85.5 C174.34375 -74.32372892178309, 174.34375 -63.14745784356617, 174.34375 -42.75 M174.34375 -85.5 C174.34375 -76.39345809686881, 174.34375 -67.28691619373761, 174.34375 -42.75 M174.34375 -42.75 C93.42572549718938 -42.75, 12.507700994378752 -42.75, -174.34375 -42.75 M174.34375 -42.75 C52.7310444069516 -42.75, -68.8816611860968 -42.75, -174.34375 -42.75 M-174.34375 -42.75 C-174.34375 -59.37021502753194, -174.34375 -75.99043005506388, -174.34375 -85.5 M-174.34375 -42.75 C-174.34375 -53.95709006883459, -174.34375 -65.16418013766918, -174.34375 -85.5" stroke="#13540c" stroke-width="1.3" fill="none" stroke-dasharray="0 0"/></g><g style="" class="row-rect-even"><path d="M-174.34375 -42.75 L174.34375 -42.75 L174.34375 0 L-174.34375 0" stroke="none" stroke-width="0" fill="hsl(78.1578947368, 58.4615384615%, 94.5098039216%)"/><path d="M-174.34375 -42.75 C-46.50927558124825 -42.75, 81.3251988375035 -42.75, 174.34375 -42.75 M-174.34375 -42.75 C-54.84934243122899 -42.75, 64.64506513754202 -42.75, 174.34375 -42.75 M174.34375 -42.75 C174.34375 -30.059798156458484, 174.34375 -17.369596312916965, 174.34375 0 M174.34375 -42.75 C174.34375 -27.0493589663485, 174.34375 -11.348717932696996, 174.34375 0 M174.34375 0 C78.86592129129147 0, -16.611907417417058 0, -174.34375 0 M174.34375 0 C74.1440763822165 0, -26.055597235567006 0, -174.34375 0 M-174.34375 0 C-174.34375 -10.670267999115513, -174.34375 -21.340535998231026, -174.34375 -42.75 M-174.34375 0 C-174.34375 -12.342195567965772, -174.34375 -24.684391135931545, -174.34375 -42.75" stroke="#13540c" stroke-width="1.3" fill="none" stroke-dasharray="0 0"/></g><g style="" class="row-rect-odd"><path d="M-174.34375 0 L174.34375 0 L174.34375 42.75 L-174.34375 42.75" stroke="none" stroke-width="0" fill="hsl(78.1578947368, 58.4615384615%, 100%)"/><path d="M-174.34375 0 C-68.8827399672585 0, 36.578270065483 0, 174.34375 0 M-174.34375 0 C-42.88251252903618 0, 88.57872494192765 0, 174.34375 0 M174.34375 0 C174.34375 9.381285804255375, 174.34375 18.76257160851075, 174.34375 42.75 M174.34375 0 C174.34375 15.32650684939412, 174.34375 30.65301369878824, 174.34375 42.75 M174.34375 42.75 C59.833461140496325 42.75, -54.67682771900735 42.75, -174.34375 42.75 M174.34375 42.75 C104.40735274215797 42.75, 34.47095548431594 42.75, -174.34375 42.75 M-174.34375 42.75 C-174.34375 33.665426407927455, -174.34375 24.58085281585491, -174.34375 0 M-174.34375 42.75 C-174.34375 33.94203096261556, -174.34375 25.134061925231126, -174.34375 0" stroke="#13540c" stroke-width="1.3" fill="none" stroke-dasharray="0 0"/></g><g style="" class="row-rect-even"><path d="M-174.34375 42.75 L174.34375 42.75 L174.34375 85.5 L-174.34375 85.5" stroke="none" stroke-width="0" fill="hsl(78.1578947368, 58.4615384615%, 94.5098039216%)"/><path d="M-174.34375 42.75 C-72.27041161756624 42.75, 29.80292676486752 42.75, 174.34375 42.75 M-174.34375 42.75 C-99.72496443809769 42.75, -25.106178876195372 42.75, 174.34375 42.75 M174.34375 42.75 C174.34375 55.2654499861124, 174.34375 67.7808999722248, 174.34375 85.5 M174.34375 42.75 C174.34375 51.36817338325175, 174.34375 59.9863467665035, 174.34375 85.5 M174.34375 85.5 C42.23157832369094 85.5, -89.88059335261812 85.5, -174.34375 85.5 M174.34375 85.5 C69.82965605218986 85.5, -34.68443789562028 85.5, -174.34375 85.5 M-174.34375 85.5 C-174.34375 75.10515574703494, -174.34375 64.71031149406988, -174.34375 42.75 M-174.34375 85.5 C-174.34375 74.74862320212367, -174.34375 63.99724640424732, -174.34375 42.75" stroke="#13540c" stroke-width="1.3" fill="none" stroke-dasharray="0 0"/></g><g style="" class="row-rect-odd"><path d="M-174.34375 85.5 L174.34375 85.5 L174.34375 128.25 L-174.34375 128.25" stroke="none" stroke-width="0" fill="hsl(78.1578947368, 58.4615384615%, 100%)"/><path d="M-174.34375 85.5 C-50.14996516833632 85.5, 74.04381966332735 85.5, 174.34375 85.5 M-174.34375 85.5 C-76.06614754745588 85.5, 22.21145490508823 85.5, 174.34375 85.5 M174.34375 85.5 C174.34375 98.62997500787738, 174.34375 111.75995001575474, 174.34375 128.25 M174.34375 85.5 C174.34375 99.35200770790108, 174.34375 113.20401541580217, 174.34375 128.25 M174.34375 128.25 C99.97849541996764 128.25, 25.613240839935287 128.25, -174.34375 128.25 M174.34375 128.25 C36.99280593731072 128.25, -100.35813812537856 128.25, -174.34375 128.25 M-174.34375 128.25 C-174.34375 118.78568214275883, -174.34375 109.32136428551766, -174.34375 85.5 M-174.34375 128.25 C-174.34375 112.26006199249022, -174.34375 96.27012398498046, -174.34375 85.5" stroke="#13540c" stroke-width="1.3" fill="none" stroke-dasharray="0 0"/></g><g class="label name" transform="translate(-16.453125, -118.875)" style=""><foreignObject width="32.90625" height="24"><div xmlns="http://www.w3.org/1999/xhtml" style="display: table-cell; white-space: nowrap; line-height: 1.5; max-width: 130px; text-align: start;"><span class="nodeLabel"><p>Role</p></span></div></foreignObject></g><g class="label attribute-type" transform="translate(-161.84375, -76.125)" style=""><foreignObject width="115.578125" height="24"><div xmlns="http://www.w3.org/1999/xhtml" style="display: table-cell; white-space: nowrap; line-height: 1.5; max-width: 216px; text-align: start;"><span class="nodeLabel"><p>SUPER_ADMIN</p></span></div></foreignObject></g><g class="label attribute-name" transform="translate(12.5, -76.125)" style=""><foreignObject width="115.578125" height="24"><div xmlns="http://www.w3.org/1999/xhtml" style="display: table-cell; white-space: nowrap; line-height: 1.5; max-width: 216px; text-align: start;"><span class="nodeLabel"><p>SUPER_ADMIN</p></span></div></foreignObject></g><g class="label attribute-keys" transform="translate(186.84375, -76.125)" style=""><foreignObject width="0" height="0"><div xmlns="http://www.w3.org/1999/xhtml" style="display: table-cell; white-space: nowrap; line-height: 1.5; max-width: 100px; text-align: start;"><span class="nodeLabel"></span></div></foreignObject></g><g class="label attribute-comment" transform="translate(186.84375, -76.125)" style=""><foreignObject width="0" height="0"><div xmlns="http://www.w3.org/1999/xhtml" style="display: table-cell; white-space: nowrap; line-height: 1.5; max-width: 100px; text-align: start;"><span class="nodeLabel"></span></div></foreignObject></g><g class="label attribute-type" transform="translate(-161.84375, -33.375)" style=""><foreignObject width="51.5625" height="24"><div xmlns="http://www.w3.org/1999/xhtml" style="display: table-cell; white-space: nowrap; line-height: 1.5; max-width: 155px; text-align: start;"><span class="nodeLabel"><p>ADMIN</p></span></div></foreignObject></g><g class="label attribute-name" transform="translate(12.5, -33.375)" style=""><foreignObject width="51.5625" height="24"><div xmlns="http://www.w3.org/1999/xhtml" style="display: table-cell; white-space: nowrap; line-height: 1.5; max-width: 155px; text-align: start;"><span class="nodeLabel"><p>ADMIN</p></span></div></foreignObject></g><g class="label attribute-keys" transform="translate(186.84375, -33.375)" style=""><foreignObject width="0" height="0"><div xmlns="http://www.w3.org/1999/xhtml" style="display: table-cell; white-space: nowrap; line-height: 1.5; max-width: 100px; text-align: start;"><span class="nodeLabel"></span></div></foreignObject></g><g class="label attribute-comment" transform="translate(186.84375, -33.375)" style=""><foreignObject width="0" height="0"><div xmlns="http://www.w3.org/1999/xhtml" style="display: table-cell; white-space: nowrap; line-height: 1.5; max-width: 100px; text-align: start;"><span class="nodeLabel"></span></div></foreignObject></g><g class="label attribute-type" transform="translate(-161.84375, 9.375)" style=""><foreignObject width="60.15625" height="24"><div xmlns="http://www.w3.org/1999/xhtml" style="display: table-cell; white-space: nowrap; line-height: 1.5; max-width: 159px; text-align: start;"><span class="nodeLabel"><p>EDITOR</p></span></div></foreignObject></g><g class="label attribute-name" transform="translate(12.5, 9.375)" style=""><foreignObject width="60.15625" height="24"><div xmlns="http://www.w3.org/1999/xhtml" style="display: table-cell; white-space: nowrap; line-height: 1.5; max-width: 159px; text-align: start;"><span class="nodeLabel"><p>EDITOR</p></span></div></foreignObject></g><g class="label attribute-keys" transform="translate(186.84375, 9.375)" style=""><foreignObject width="0" height="0"><div xmlns="http://www.w3.org/1999/xhtml" style="display: table-cell; white-space: nowrap; line-height: 1.5; max-width: 100px; text-align: start;"><span class="nodeLabel"></span></div></foreignObject></g><g class="label attribute-comment" transform="translate(186.84375, 9.375)" style=""><foreignObject width="0" height="0"><div xmlns="http://www.w3.org/1999/xhtml" style="display: table-cell; white-space: nowrap; line-height: 1.5; max-width: 100px; text-align: start;"><span class="nodeLabel"></span></div></foreignObject></g><g class="label attribute-type" transform="translate(-161.84375, 52.125)" style=""><foreignObject width="149.34375" height="24"><div xmlns="http://www.w3.org/1999/xhtml" style="display: table-cell; white-space: nowrap; line-height: 1.5; max-width: 249px; text-align: start;"><span class="nodeLabel"><p>ACCOUNT_OWNER</p></span></div></foreignObject></g><g class="label attribute-name" transform="translate(12.5, 52.125)" style=""><foreignObject width="149.34375" height="24"><div xmlns="http://www.w3.org/1999/xhtml" style="display: table-cell; white-space: nowrap; line-height: 1.5; max-width: 249px; text-align: start;"><span class="nodeLabel"><p>ACCOUNT_OWNER</p></span></div></foreignObject></g><g class="label attribute-keys" transform="translate(186.84375, 52.125)" style=""><foreignObject width="0" height="0"><div xmlns="http://www.w3.org/1999/xhtml" style="display: table-cell; white-space: nowrap; line-height: 1.5; max-width: 100px; text-align: start;"><span class="nodeLabel"></span></div></foreignObject></g><g class="label attribute-comment" transform="translate(186.84375, 52.125)" style=""><foreignObject width="0" height="0"><div xmlns="http://www.w3.org/1999/xhtml" style="display: table-cell; white-space: nowrap; line-height: 1.5; max-width: 100px; text-align: start;"><span class="nodeLabel"></span></div></foreignObject></g><g class="label attribute-type" transform="translate(-161.84375, 94.875)" style=""><foreignObject width="70.234375" height="24"><div xmlns="http://www.w3.org/1999/xhtml" style="display: table-cell; white-space: nowrap; line-height: 1.5; max-width: 170px; text-align: start;"><span class="nodeLabel"><p>MEMBER</p></span></div></foreignObject></g><g class="label attribute-name" transform="translate(12.5, 94.875)" style=""><foreignObject width="70.234375" height="24"><div xmlns="http://www.w3.org/1999/xhtml" style="display: table-cell; white-space: nowrap; line-height: 1.5; max-width: 170px; text-align: start;"><span class="nodeLabel"><p>MEMBER</p></span></div></foreignObject></g><g class="label attribute-keys" transform="translate(186.84375, 94.875)" style=""><foreignObject width="0" height="0"><div xmlns="http://www.w3.org/1999/xhtml" style="display: table-cell; white-space: nowrap; line-height: 1.5; max-width: 100px; text-align: start;"><span class="nodeLabel"></span></div></foreignObject></g><g class="label attribute-comment" transform="translate(186.84375, 94.875)" style=""><foreignObject width="0" height="0"><div xmlns="http://www.w3.org/1999/xhtml" style="display: table-cell; white-space: nowrap; line-height: 1.5; max-width: 100px; text-align: start;"><span class="nodeLabel"></span></div></foreignObject></g><g class="divider"><path d="M-174.34375 -85.5 C-98.81065042450759 -85.5, -23.27755084901517 -85.5, 174.34375 -85.5 M-174.34375 -85.5 C-44.457842544559384 -85.5, 85.42806491088123 -85.5, 174.34375 -85.5" stroke="#13540c" stroke-width="1.3" fill="none" stroke-dasharray="0 0"/></g><g class="divider"><path d="M0 -85.5 C0 -3.179819777463706, 0 79.14036044507259, 0 128.25 M0 -85.5 C0 -22.229213257790278, 0 41.041573484419445, 0 128.25" stroke="#13540c" stroke-width="1.3" fill="none" stroke-dasharray="0 0"/></g><g class="divider"><path d="M-174.34375 -85.5 C-37.41819163187975 -85.5, 99.5073667362405 -85.5, 174.34375 -85.5 M-174.34375 -85.5 C-66.3853215351619 -85.5, 41.573106929676186 -85.5, 174.34375 -85.5" stroke="#13540c" stroke-width="1.3" fill="none" stroke-dasharray="0 0"/></g></g><g class="node default" id="entity-UserStatus-1" transform="translate(621.265625, 979.5)"><g style=""><path d="M-124.578125 -85.5 L124.578125 -85.5 L124.578125 85.5 L-124.578125 85.5" stroke="none" stroke-width="0" fill="#cde498"/><path d="M-124.578125 -85.5 C-67.55131455005304 -85.5, -10.524504100106057 -85.5, 124.578125 -85.5 M-124.578125 -85.5 C-48.71579924817817 -85.5, 27.146526503643656 -85.5, 124.578125 -85.5 M124.578125 -85.5 C124.578125 -47.049235850270165, 124.578125 -8.59847170054033, 124.578125 85.5 M124.578125 -85.5 C124.578125 -23.659214975591887, 124.578125 38.181570048816226, 124.578125 85.5 M124.578125 85.5 C70.86658901939083 85.5, 17.155053038781645 85.5, -124.578125 85.5 M124.578125 85.5 C37.45149628027163 85.5, -49.675132439456746 85.5, -124.578125 85.5 M-124.578125 85.5 C-124.578125 46.50182708697031, -124.578125 7.5036541739406175, -124.578125 -85.5 M-124.578125 85.5 C-124.578125 30.04998769614469, -124.578125 -25.40002460771062, -124.578125 -85.5" stroke="#13540c" stroke-width="1.3" fill="none" stroke-dasharray="0 0"/></g><g style="" class="row-rect-odd"><path d="M-124.578125 -42.75 L124.578125 -42.75 L124.578125 0 L-124.578125 0" stroke="none" stroke-width="0" fill="hsl(78.1578947368, 58.4615384615%, 100%)"/><path d="M-124.578125 -42.75 C-74.69664247739443 -42.75, -24.815159954788868 -42.75, 124.578125 -42.75 M-124.578125 -42.75 C-57.57412374952372 -42.75, 9.429877500952557 -42.75, 124.578125 -42.75 M124.578125 -42.75 C124.578125 -30.229469030154213, 124.578125 -17.708938060308427, 124.578125 0 M124.578125 -42.75 C124.578125 -31.278524678017646, 124.578125 -19.807049356035296, 124.578125 0 M124.578125 0 C48.744496101742186 0, -27.089132796515628 0, -124.578125 0 M124.578125 0 C51.90057523029603 0, -20.776974539407945 0, -124.578125 0 M-124.578125 0 C-124.578125 -11.955600125015344, -124.578125 -23.91120025003069, -124.578125 -42.75 M-124.578125 0 C-124.578125 -12.201103250919285, -124.578125 -24.40220650183857, -124.578125 -42.75" stroke="#13540c" stroke-width="1.3" fill="none" stroke-dasharray="0 0"/></g><g style="" class="row-rect-even"><path d="M-124.578125 0 L124.578125 0 L124.578125 42.75 L-124.578125 42.75" stroke="none" stroke-width="0" fill="hsl(78.1578947368, 58.4615384615%, 94.5098039216%)"/><path d="M-124.578125 0 C-69.97059854537582 0, -15.363072090751643 0, 124.578125 0 M-124.578125 0 C-65.89313251009537 0, -7.208140020190754 0, 124.578125 0 M124.578125 0 C124.578125 9.391007960605783, 124.578125 18.782015921211567, 124.578125 42.75 M124.578125 0 C124.578125 10.506423356354203, 124.578125 21.012846712708406, 124.578125 42.75 M124.578125 42.75 C74.14162852341389 42.75, 23.705132046827785 42.75, -124.578125 42.75 M124.578125 42.75 C69.24346517108646 42.75, 13.908805342172897 42.75, -124.578125 42.75 M-124.578125 42.75 C-124.578125 26.036426777568153, -124.578125 9.322853555136305, -124.578125 0 M-124.578125 42.75 C-124.578125 31.158926611717792, -124.578125 19.567853223435584, -124.578125 0" stroke="#13540c" stroke-width="1.3" fill="none" stroke-dasharray="0 0"/></g><g style="" class="row-rect-odd"><path d="M-124.578125 42.75 L124.578125 42.75 L124.578125 85.5 L-124.578125 85.5" stroke="none" stroke-width="0" fill="hsl(78.1578947368, 58.4615384615%, 100%)"/><path d="M-124.578125 42.75 C-57.88947000141586 42.75, 8.799184997168283 42.75, 124.578125 42.75 M-124.578125 42.75 C-53.646619939886406 42.75, 17.284885120227187 42.75, 124.578125 42.75 M124.578125 42.75 C124.578125 56.62440471780264, 124.578125 70.49880943560528, 124.578125 85.5 M124.578125 42.75 C124.578125 57.83710610794206, 124.578125 72.92421221588413, 124.578125 85.5 M124.578125 85.5 C53.05571097829959 85.5, -18.466703043400827 85.5, -124.578125 85.5 M124.578125 85.5 C70.97539103255016 85.5, 17.37265706510034 85.5, -124.578125 85.5 M-124.578125 85.5 C-124.578125 71.89357775017177, -124.578125 58.28715550034356, -124.578125 42.75 M-124.578125 85.5 C-124.578125 68.88879005626589, -124.578125 52.277580112531766, -124.578125 42.75" stroke="#13540c" stroke-width="1.3" fill="none" stroke-dasharray="0 0"/></g><g class="label name" transform="translate(-39.5703125, -76.125)" style=""><foreignObject width="79.140625" height="24"><div xmlns="http://www.w3.org/1999/xhtml" style="display: table-cell; white-space: nowrap; line-height: 1.5; max-width: 169px; text-align: start;"><span class="nodeLabel"><p>UserStatus</p></span></div></foreignObject></g><g class="label attribute-type" transform="translate(-112.078125, -33.375)" style=""><foreignObject width="63.125" height="24"><div xmlns="http://www.w3.org/1999/xhtml" style="display: table-cell; white-space: nowrap; line-height: 1.5; max-width: 165px; text-align: start;"><span class="nodeLabel"><p>INVITED</p></span></div></foreignObject></g><g class="label attribute-name" transform="translate(12.5, -33.375)" style=""><foreignObject width="63.125" height="24"><div xmlns="http://www.w3.org/1999/xhtml" style="display: table-cell; white-space: nowrap; line-height: 1.5; max-width: 165px; text-align: start;"><span class="nodeLabel"><p>INVITED</p></span></div></foreignObject></g><g class="label attribute-keys" transform="translate(137.078125, -33.375)" style=""><foreignObject width="0" height="0"><div xmlns="http://www.w3.org/1999/xhtml" style="display: table-cell; white-space: nowrap; line-height: 1.5; max-width: 100px; text-align: start;"><span class="nodeLabel"></span></div></foreignObject></g><g class="label attribute-comment" transform="translate(137.078125, -33.375)" style=""><foreignObject width="0" height="0"><div xmlns="http://www.w3.org/1999/xhtml" style="display: table-cell; white-space: nowrap; line-height: 1.5; max-width: 100px; text-align: start;"><span class="nodeLabel"></span></div></foreignObject></g><g class="label attribute-type" transform="translate(-112.078125, 9.375)" style=""><foreignObject width="57.796875" height="24"><div xmlns="http://www.w3.org/1999/xhtml" style="display: table-cell; white-space: nowrap; line-height: 1.5; max-width: 159px; text-align: start;"><span class="nodeLabel"><p>ACTIVE</p></span></div></foreignObject></g><g class="label attribute-name" transform="translate(12.5, 9.375)" style=""><foreignObject width="57.796875" height="24"><div xmlns="http://www.w3.org/1999/xhtml" style="display: table-cell; white-space: nowrap; line-height: 1.5; max-width: 159px; text-align: start;"><span class="nodeLabel"><p>ACTIVE</p></span></div></foreignObject></g><g class="label attribute-keys" transform="translate(137.078125, 9.375)" style=""><foreignObject width="0" height="0"><div xmlns="http://www.w3.org/1999/xhtml" style="display: table-cell; white-space: nowrap; line-height: 1.5; max-width: 100px; text-align: start;"><span class="nodeLabel"></span></div></foreignObject></g><g class="label attribute-comment" transform="translate(137.078125, 9.375)" style=""><foreignObject width="0" height="0"><div xmlns="http://www.w3.org/1999/xhtml" style="display: table-cell; white-space: nowrap; line-height: 1.5; max-width: 100px; text-align: start;"><span class="nodeLabel"></span></div></foreignObject></g><g class="label attribute-type" transform="translate(-112.078125, 52.125)" style=""><foreignObject width="99.578125" height="24"><div xmlns="http://www.w3.org/1999/xhtml" style="display: table-cell; white-space: nowrap; line-height: 1.5; max-width: 192px; text-align: start;"><span class="nodeLabel"><p>SUSPENDED</p></span></div></foreignObject></g><g class="label attribute-name" transform="translate(12.5, 52.125)" style=""><foreignObject width="99.578125" height="24"><div xmlns="http://www.w3.org/1999/xhtml" style="display: table-cell; white-space: nowrap; line-height: 1.5; max-width: 192px; text-align: start;"><span class="nodeLabel"><p>SUSPENDED</p></span></div></foreignObject></g><g class="label attribute-keys" transform="translate(137.078125, 52.125)" style=""><foreignObject width="0" height="0"><div xmlns="http://www.w3.org/1999/xhtml" style="display: table-cell; white-space: nowrap; line-height: 1.5; max-width: 100px; text-align: start;"><span class="nodeLabel"></span></div></foreignObject></g><g class="label attribute-comment" transform="translate(137.078125, 52.125)" style=""><foreignObject width="0" height="0"><div xmlns="http://www.w3.org/1999/xhtml" style="display: table-cell; white-space: nowrap; line-height: 1.5; max-width: 100px; text-align: start;"><span class="nodeLabel"></span></div></foreignObject></g><g class="divider"><path d="M-124.578125 -42.75 C-43.89875596803287 -42.75, 36.780613063934254 -42.75, 124.578125 -42.75 M-124.578125 -42.75 C-27.303182378826534 -42.75, 69.97176024234693 -42.75, 124.578125 -42.75" stroke="#13540c" stroke-width="1.3" fill="none" stroke-dasharray="0 0"/></g><g class="divider"><path d="M0 -42.75 C0 -6.7025056601620605, 0 29.34498867967588, 0 85.5 M0 -42.75 C0 0.1209338495473844, 0 42.99186769909477, 0 85.5" stroke="#13540c" stroke-width="1.3" fill="none" stroke-dasharray="0 0"/></g><g class="divider"><path d="M-124.578125 -42.75 C-37.66281148654511 -42.75, 49.25250202690978 -42.75, 124.578125 -42.75 M-124.578125 -42.75 C-53.934972932610805 -42.75, 16.70817913477839 -42.75, 124.578125 -42.75" stroke="#13540c" stroke-width="1.3" fill="none" stroke-dasharray="0 0"/></g></g><g class="node default" id="entity-Account-2" transform="translate(399.078125, 114.875)"><g style=""><path d="M-118.359375 -106.875 L118.359375 -106.875 L118.359375 106.875 L-118.359375 106.875" stroke="none" stroke-width="0" fill="#cde498"/><path d="M-118.359375 -106.875 C-68.6878609021013 -106.875, -19.0163468042026 -106.875, 118.359375 -106.875 M-118.359375 -106.875 C-55.32910996242104 -106.875, 7.701155075157914 -106.875, 118.359375 -106.875 M118.359375 -106.875 C118.359375 -31.6024914732633, 118.359375 43.6700170534734, 118.359375 106.875 M118.359375 -106.875 C118.359375 -24.294136569954986, 118.359375 58.28672686009003, 118.359375 106.875 M118.359375 106.875 C61.53969859284846 106.875, 4.720022185696919 106.875, -118.359375 106.875 M118.359375 106.875 C28.27936442441397 106.875, -61.80064615117206 106.875, -118.359375 106.875 M-118.359375 106.875 C-118.359375 47.54362943417632, -118.359375 -11.787741131647365, -118.359375 -106.875 M-118.359375 106.875 C-118.359375 25.627264270435603, -118.359375 -55.620471459128794, -118.359375 -106.875" stroke="#13540c" stroke-width="1.3" fill="none" stroke-dasharray="0 0"/></g><g style="" class="row-rect-odd"><path d="M-118.359375 -64.125 L118.359375 -64.125 L118.359375 -21.375 L-118.359375 -21.375" stroke="none" stroke-width="0" fill="hsl(78.1578947368, 58.4615384615%, 100%)"/><path d="M-118.359375 -64.125 C-37.62705279434502 -64.125, 43.10526941130996 -64.125, 118.359375 -64.125 M-118.359375 -64.125 C-34.421153237673124 -64.125, 49.51706852465375 -64.125, 118.359375 -64.125 M118.359375 -64.125 C118.359375 -47.633280881660625, 118.359375 -31.141561763321256, 118.359375 -21.375 M118.359375 -64.125 C118.359375 -50.32894827044379, 118.359375 -36.53289654088758, 118.359375 -21.375 M118.359375 -21.375 C53.875240782634776 -21.375, -10.608893434730447 -21.375, -118.359375 -21.375 M118.359375 -21.375 C53.25634608569848 -21.375, -11.846682828603036 -21.375, -118.359375 -21.375 M-118.359375 -21.375 C-118.359375 -30.96967186114587, -118.359375 -40.56434372229174, -118.359375 -64.125 M-118.359375 -21.375 C-118.359375 -33.652131565889746, -118.359375 -45.92926313177949, -118.359375 -64.125" stroke="#13540c" stroke-width="1.3" fill="none" stroke-dasharray="0 0"/></g><g style="" class="row-rect-even"><path d="M-118.359375 -21.375 L118.359375 -21.375 L118.359375 21.375 L-118.359375 21.375" stroke="none" stroke-width="0" fill="hsl(78.1578947368, 58.4615384615%, 94.5098039216%)"/><path d="M-118.359375 -21.375 C-45.10477964946611 -21.375, 28.14981570106778 -21.375, 118.359375 -21.375 M-118.359375 -21.375 C-67.54082693926753 -21.375, -16.72227887853505 -21.375, 118.359375 -21.375 M118.359375 -21.375 C118.359375 -11.621839141720486, 118.359375 -1.8686782834409712, 118.359375 21.375 M118.359375 -21.375 C118.359375 -10.576090781187974, 118.359375 0.22281843762405273, 118.359375 21.375 M118.359375 21.375 C66.88058352053307 21.375, 15.40179204106613 21.375, -118.359375 21.375 M118.359375 21.375 C26.344044796447733 21.375, -65.67128540710453 21.375, -118.359375 21.375 M-118.359375 21.375 C-118.359375 11.784167565776734, -118.359375 2.193335131553468, -118.359375 -21.375 M-118.359375 21.375 C-118.359375 9.027881937098476, -118.359375 -3.319236125803048, -118.359375 -21.375" stroke="#13540c" stroke-width="1.3" fill="none" stroke-dasharray="0 0"/></g><g style="" class="row-rect-odd"><path d="M-118.359375 21.375 L118.359375 21.375 L118.359375 64.125 L-118.359375 64.125" stroke="none" stroke-width="0" fill="hsl(78.1578947368, 58.4615384615%, 100%)"/><path d="M-118.359375 21.375 C-58.63728423241204 21.375, 1.0848065351759146 21.375, 118.359375 21.375 M-118.359375 21.375 C-45.86103100432747 21.375, 26.637312991345055 21.375, 118.359375 21.375 M118.359375 21.375 C118.359375 36.34733934238739, 118.359375 51.319678684774786, 118.359375 64.125 M118.359375 21.375 C118.359375 31.879025811999867, 118.359375 42.383051623999734, 118.359375 64.125 M118.359375 64.125 C57.048119885250514 64.125, -4.263135229498971 64.125, -118.359375 64.125 M118.359375 64.125 C48.549038606209706 64.125, -21.261297787580588 64.125, -118.359375 64.125 M-118.359375 64.125 C-118.359375 50.31278849224573, -118.359375 36.50057698449146, -118.359375 21.375 M-118.359375 64.125 C-118.359375 50.70510661004414, -118.359375 37.28521322008828, -118.359375 21.375" stroke="#13540c" stroke-width="1.3" fill="none" stroke-dasharray="0 0"/></g><g style="" class="row-rect-even"><path d="M-118.359375 64.125 L118.359375 64.125 L118.359375 106.875 L-118.359375 106.875" stroke="none" stroke-width="0" fill="hsl(78.1578947368, 58.4615384615%, 94.5098039216%)"/><path d="M-118.359375 64.125 C-67.98202376674897 64.125, -17.60467253349792 64.125, 118.359375 64.125 M-118.359375 64.125 C-70.91473303067195 64.125, -23.470091061343922 64.125, 118.359375 64.125 M118.359375 64.125 C118.359375 78.57191908182249, 118.359375 93.01883816364497, 118.359375 106.875 M118.359375 64.125 C118.359375 78.76075357784437, 118.359375 93.39650715568874, 118.359375 106.875 M118.359375 106.875 C29.09641390324647 106.875, -60.16654719350706 106.875, -118.359375 106.875 M118.359375 106.875 C53.78740702793603 106.875, -10.784560944127946 106.875, -118.359375 106.875 M-118.359375 106.875 C-118.359375 95.52174864870537, -118.359375 84.16849729741075, -118.359375 64.125 M-118.359375 106.875 C-118.359375 97.5896243393554, -118.359375 88.30424867871078, -118.359375 64.125" stroke="#13540c" stroke-width="1.3" fill="none" stroke-dasharray="0 0"/></g><g class="label name" transform="translate(-28.90625, -97.5)" style=""><foreignObject width="57.8125" height="24"><div xmlns="http://www.w3.org/1999/xhtml" style="display: table-cell; white-space: nowrap; line-height: 1.5; max-width: 155px; text-align: start;"><span class="nodeLabel"><p>Account</p></span></div></foreignObject></g><g class="label attribute-type" transform="translate(-105.859375, -54.75)" style=""><foreignObject width="41.796875" height="24"><div xmlns="http://www.w3.org/1999/xhtml" style="display: table-cell; white-space: nowrap; line-height: 1.5; max-width: 139px; text-align: start;"><span class="nodeLabel"><p>String</p></span></div></foreignObject></g><g class="label attribute-name" transform="translate(-12.09375, -54.75)" style=""><foreignObject width="12.453125" height="24"><div xmlns="http://www.w3.org/1999/xhtml" style="display: table-cell; white-space: nowrap; line-height: 1.5; max-width: 112px; text-align: start;"><span class="nodeLabel"><p>id</p></span></div></foreignObject></g><g class="label attribute-keys" transform="translate(85.859375, -54.75)" style=""><foreignObject width="0" height="0"><div xmlns="http://www.w3.org/1999/xhtml" style="display: table-cell; white-space: nowrap; line-height: 1.5; max-width: 100px; text-align: start;"><span class="nodeLabel"></span></div></foreignObject></g><g class="label attribute-comment" transform="translate(85.859375, -54.75)" style=""><foreignObject width="20" height="24"><div xmlns="http://www.w3.org/1999/xhtml" style="display: table-cell; white-space: nowrap; line-height: 1.5; max-width: 120px; text-align: start;"><span class="nodeLabel"><p>🗝️</p></span></div></foreignObject></g><g class="label attribute-type" transform="translate(-105.859375, -12)" style=""><foreignObject width="41.796875" height="24"><div xmlns="http://www.w3.org/1999/xhtml" style="display: table-cell; white-space: nowrap; line-height: 1.5; max-width: 139px; text-align: start;"><span class="nodeLabel"><p>String</p></span></div></foreignObject></g><g class="label attribute-name" transform="translate(-12.09375, -12)" style=""><foreignObject width="40.03125" height="24"><div xmlns="http://www.w3.org/1999/xhtml" style="display: table-cell; white-space: nowrap; line-height: 1.5; max-width: 135px; text-align: start;"><span class="nodeLabel"><p>name</p></span></div></foreignObject></g><g class="label attribute-keys" transform="translate(85.859375, -12)" style=""><foreignObject width="0" height="0"><div xmlns="http://www.w3.org/1999/xhtml" style="display: table-cell; white-space: nowrap; line-height: 1.5; max-width: 100px; text-align: start;"><span class="nodeLabel"></span></div></foreignObject></g><g class="label attribute-comment" transform="translate(85.859375, -12)" style=""><foreignObject width="0" height="0"><div xmlns="http://www.w3.org/1999/xhtml" style="display: table-cell; white-space: nowrap; line-height: 1.5; max-width: 100px; text-align: start;"><span class="nodeLabel"></span></div></foreignObject></g><g class="label attribute-type" transform="translate(-105.859375, 30.75)" style=""><foreignObject width="68.765625" height="24"><div xmlns="http://www.w3.org/1999/xhtml" style="display: table-cell; white-space: nowrap; line-height: 1.5; max-width: 163px; text-align: start;"><span class="nodeLabel"><p>DateTime</p></span></div></foreignObject></g><g class="label attribute-name" transform="translate(-12.09375, 30.75)" style=""><foreignObject width="68.484375" height="24"><div xmlns="http://www.w3.org/1999/xhtml" style="display: table-cell; white-space: nowrap; line-height: 1.5; max-width: 163px; text-align: start;"><span class="nodeLabel"><p>createdAt</p></span></div></foreignObject></g><g class="label attribute-keys" transform="translate(85.859375, 30.75)" style=""><foreignObject width="0" height="0"><div xmlns="http://www.w3.org/1999/xhtml" style="display: table-cell; white-space: nowrap; line-height: 1.5; max-width: 100px; text-align: start;"><span class="nodeLabel"></span></div></foreignObject></g><g class="label attribute-comment" transform="translate(85.859375, 30.75)" style=""><foreignObject width="0" height="0"><div xmlns="http://www.w3.org/1999/xhtml" style="display: table-cell; white-space: nowrap; line-height: 1.5; max-width: 100px; text-align: start;"><span class="nodeLabel"></span></div></foreignObject></g><g class="label attribute-type" transform="translate(-105.859375, 73.5)" style=""><foreignObject width="68.765625" height="24"><div xmlns="http://www.w3.org/1999/xhtml" style="display: table-cell; white-space: nowrap; line-height: 1.5; max-width: 163px; text-align: start;"><span class="nodeLabel"><p>DateTime</p></span></div></foreignObject></g><g class="label attribute-name" transform="translate(-12.09375, 73.5)" style=""><foreignObject width="72.953125" height="24"><div xmlns="http://www.w3.org/1999/xhtml" style="display: table-cell; white-space: nowrap; line-height: 1.5; max-width: 167px; text-align: start;"><span class="nodeLabel"><p>updatedAt</p></span></div></foreignObject></g><g class="label attribute-keys" transform="translate(85.859375, 73.5)" style=""><foreignObject width="0" height="0"><div xmlns="http://www.w3.org/1999/xhtml" style="display: table-cell; white-space: nowrap; line-height: 1.5; max-width: 100px; text-align: start;"><span class="nodeLabel"></span></div></foreignObject></g><g class="label attribute-comment" transform="translate(85.859375, 73.5)" style=""><foreignObject width="0" height="0"><div xmlns="http://www.w3.org/1999/xhtml" style="display: table-cell; white-space: nowrap; line-height: 1.5; max-width: 100px; text-align: start;"><span class="nodeLabel"></span></div></foreignObject></g><g class="divider"><path d="M-118.359375 -64.125 C-28.03708025694361 -64.125, 62.28521448611278 -64.125, 118.359375 -64.125 M-118.359375 -64.125 C-42.32207877454202 -64.125, 33.71521745091596 -64.125, 118.359375 -64.125" stroke="#13540c" stroke-width="1.3" fill="none" stroke-dasharray="0 0"/></g><g class="divider"><path d="M-24.59375 -64.125 C-24.59375 -7.85191618965284, -24.59375 48.42116762069432, -24.59375 106.875 M-24.59375 -64.125 C-24.59375 -18.55588914981032, -24.59375 27.01322170037936, -24.59375 106.875" stroke="#13540c" stroke-width="1.3" fill="none" stroke-dasharray="0 0"/></g><g class="divider"><path d="M73.359375 -64.125 C73.359375 -28.79375845783005, 73.359375 6.537483084339897, 73.359375 106.875 M73.359375 -64.125 C73.359375 -29.66965048163386, 73.359375 4.785699036732282, 73.359375 106.875" stroke="#13540c" stroke-width="1.3" fill="none" stroke-dasharray="0 0"/></g><g class="divider"><path d="M-118.359375 -64.125 C-53.012299344017066 -64.125, 12.334776311965868 -64.125, 118.359375 -64.125 M-118.359375 -64.125 C-29.883826490283425 -64.125, 58.59172201943315 -64.125, 118.359375 -64.125" stroke="#13540c" stroke-width="1.3" fill="none" stroke-dasharray="0 0"/></g></g><g class="node default" id="entity-User-3" transform="translate(399.078125, 536.5)"><g style=""><path d="M-139.984375 -213.75 L139.984375 -213.75 L139.984375 213.75 L-139.984375 213.75" stroke="none" stroke-width="0" fill="#cde498"/><path d="M-139.984375 -213.75 C-47.02378575774537 -213.75, 45.936803484509255 -213.75, 139.984375 -213.75 M-139.984375 -213.75 C-65.4456656357676 -213.75, 9.093043728464806 -213.75, 139.984375 -213.75 M139.984375 -213.75 C139.984375 -83.06498531745942, 139.984375 47.620029365081166, 139.984375 213.75 M139.984375 -213.75 C139.984375 -82.29427048871159, 139.984375 49.16145902257682, 139.984375 213.75 M139.984375 213.75 C34.28501120313862 213.75, -71.41435259372275 213.75, -139.984375 213.75 M139.984375 213.75 C51.99312034547475 213.75, -35.9981343090505 213.75, -139.984375 213.75 M-139.984375 213.75 C-139.984375 75.52338063966155, -139.984375 -62.70323872067689, -139.984375 -213.75 M-139.984375 213.75 C-139.984375 57.82423570290541, -139.984375 -98.10152859418918, -139.984375 -213.75" stroke="#13540c" stroke-width="1.3" fill="none" stroke-dasharray="0 0"/></g><g style="" class="row-rect-odd"><path d="M-139.984375 -171 L139.984375 -171 L139.984375 -128.25 L-139.984375 -128.25" stroke="none" stroke-width="0" fill="hsl(78.1578947368, 58.4615384615%, 100%)"/><path d="M-139.984375 -171 C-82.26012189122693 -171, -24.535868782453875 -171, 139.984375 -171 M-139.984375 -171 C-32.99522833173023 -171, 73.99391833653954 -171, 139.984375 -171 M139.984375 -171 C139.984375 -154.45832340680505, 139.984375 -137.9166468136101, 139.984375 -128.25 M139.984375 -171 C139.984375 -156.56279478354114, 139.984375 -142.12558956708227, 139.984375 -128.25 M139.984375 -128.25 C81.84043240726692 -128.25, 23.69648981453382 -128.25, -139.984375 -128.25 M139.984375 -128.25 C70.13293299310898 -128.25, 0.2814909862179604 -128.25, -139.984375 -128.25 M-139.984375 -128.25 C-139.984375 -142.38568032538168, -139.984375 -156.52136065076337, -139.984375 -171 M-139.984375 -128.25 C-139.984375 -140.53185414645554, -139.984375 -152.8137082929111, -139.984375 -171" stroke="#13540c" stroke-width="1.3" fill="none" stroke-dasharray="0 0"/></g><g style="" class="row-rect-even"><path d="M-139.984375 -128.25 L139.984375 -128.25 L139.984375 -85.5 L-139.984375 -85.5" stroke="none" stroke-width="0" fill="hsl(78.1578947368, 58.4615384615%, 94.5098039216%)"/><path d="M-139.984375 -128.25 C-58.01840899448307 -128.25, 23.947557011033865 -128.25, 139.984375 -128.25 M-139.984375 -128.25 C-60.81479881484722 -128.25, 18.354777370305555 -128.25, 139.984375 -128.25 M139.984375 -128.25 C139.984375 -113.14077266546452, 139.984375 -98.03154533092905, 139.984375 -85.5 M139.984375 -128.25 C139.984375 -117.73773636784435, 139.984375 -107.22547273568868, 139.984375 -85.5 M139.984375 -85.5 C71.28903382563546 -85.5, 2.5936926512709135 -85.5, -139.984375 -85.5 M139.984375 -85.5 C60.67909759807338 -85.5, -18.626179803853233 -85.5, -139.984375 -85.5 M-139.984375 -85.5 C-139.984375 -98.31580650590861, -139.984375 -111.13161301181722, -139.984375 -128.25 M-139.984375 -85.5 C-139.984375 -100.66285093399127, -139.984375 -115.82570186798253, -139.984375 -128.25" stroke="#13540c" stroke-width="1.3" fill="none" stroke-dasharray="0 0"/></g><g style="" class="row-rect-odd"><path d="M-139.984375 -85.5 L139.984375 -85.5 L139.984375 -42.75 L-139.984375 -42.75" stroke="none" stroke-width="0" fill="hsl(78.1578947368, 58.4615384615%, 100%)"/><path d="M-139.984375 -85.5 C-73.41645939253925 -85.5, -6.848543785078505 -85.5, 139.984375 -85.5 M-139.984375 -85.5 C-35.98563181591766 -85.5, 68.01311136816469 -85.5, 139.984375 -85.5 M139.984375 -85.5 C139.984375 -70.68560453401888, 139.984375 -55.87120906803775, 139.984375 -42.75 M139.984375 -85.5 C139.984375 -70.97224839717435, 139.984375 -56.44449679434871, 139.984375 -42.75 M139.984375 -42.75 C51.772738940645866 -42.75, -36.43889711870827 -42.75, -139.984375 -42.75 M139.984375 -42.75 C39.46755650453876 -42.75, -61.049261990922474 -42.75, -139.984375 -42.75 M-139.984375 -42.75 C-139.984375 -59.24284715093697, -139.984375 -75.73569430187393, -139.984375 -85.5 M-139.984375 -42.75 C-139.984375 -58.11176260340377, -139.984375 -73.47352520680754, -139.984375 -85.5" stroke="#13540c" stroke-width="1.3" fill="none" stroke-dasharray="0 0"/></g><g style="" class="row-rect-even"><path d="M-139.984375 -42.75 L139.984375 -42.75 L139.984375 0 L-139.984375 0" stroke="none" stroke-width="0" fill="hsl(78.1578947368, 58.4615384615%, 94.5098039216%)"/><path d="M-139.984375 -42.75 C-37.82882194468631 -42.75, 64.32673111062738 -42.75, 139.984375 -42.75 M-139.984375 -42.75 C-82.78151775520898 -42.75, -25.57866051041796 -42.75, 139.984375 -42.75 M139.984375 -42.75 C139.984375 -31.390453346540465, 139.984375 -20.03090669308093, 139.984375 0 M139.984375 -42.75 C139.984375 -33.030631152091104, 139.984375 -23.311262304182204, 139.984375 0 M139.984375 0 C75.41666080337615 0, 10.848946606752293 0, -139.984375 0 M139.984375 0 C78.33950988434313 0, 16.69464476868626 0, -139.984375 0 M-139.984375 0 C-139.984375 -9.43950251136743, -139.984375 -18.87900502273486, -139.984375 -42.75 M-139.984375 0 C-139.984375 -11.375210510930328, -139.984375 -22.750421021860657, -139.984375 -42.75" stroke="#13540c" stroke-width="1.3" fill="none" stroke-dasharray="0 0"/></g><g style="" class="row-rect-odd"><path d="M-139.984375 0 L139.984375 0 L139.984375 42.75 L-139.984375 42.75" stroke="none" stroke-width="0" fill="hsl(78.1578947368, 58.4615384615%, 100%)"/><path d="M-139.984375 0 C-37.712166033001765 0, 64.56004293399647 0, 139.984375 0 M-139.984375 0 C-31.61972055750269 0, 76.74493388499462 0, 139.984375 0 M139.984375 0 C139.984375 13.338034249453996, 139.984375 26.67606849890799, 139.984375 42.75 M139.984375 0 C139.984375 10.466174519165966, 139.984375 20.93234903833193, 139.984375 42.75 M139.984375 42.75 C80.61331349383804 42.75, 21.24225198767607 42.75, -139.984375 42.75 M139.984375 42.75 C40.982456886470686 42.75, -58.01946122705863 42.75, -139.984375 42.75 M-139.984375 42.75 C-139.984375 25.970952342479162, -139.984375 9.191904684958324, -139.984375 0 M-139.984375 42.75 C-139.984375 29.34707549923324, -139.984375 15.94415099846648, -139.984375 0" stroke="#13540c" stroke-width="1.3" fill="none" stroke-dasharray="0 0"/></g><g style="" class="row-rect-even"><path d="M-139.984375 42.75 L139.984375 42.75 L139.984375 85.5 L-139.984375 85.5" stroke="none" stroke-width="0" fill="hsl(78.1578947368, 58.4615384615%, 94.5098039216%)"/><path d="M-139.984375 42.75 C-40.55546839707486 42.75, 58.87343820585028 42.75, 139.984375 42.75 M-139.984375 42.75 C-31.7111559004844 42.75, 76.5620631990312 42.75, 139.984375 42.75 M139.984375 42.75 C139.984375 57.66829688104422, 139.984375 72.58659376208844, 139.984375 85.5 M139.984375 42.75 C139.984375 54.39864884217771, 139.984375 66.04729768435541, 139.984375 85.5 M139.984375 85.5 C71.8764186370906 85.5, 3.7684622741811893 85.5, -139.984375 85.5 M139.984375 85.5 C58.037471105201604 85.5, -23.909432789596792 85.5, -139.984375 85.5 M-139.984375 85.5 C-139.984375 70.32400551424556, -139.984375 55.14801102849111, -139.984375 42.75 M-139.984375 85.5 C-139.984375 70.3396820136307, -139.984375 55.179364027261414, -139.984375 42.75" stroke="#13540c" stroke-width="1.3" fill="none" stroke-dasharray="0 0"/></g><g style="" class="row-rect-odd"><path d="M-139.984375 85.5 L139.984375 85.5 L139.984375 128.25 L-139.984375 128.25" stroke="none" stroke-width="0" fill="hsl(78.1578947368, 58.4615384615%, 100%)"/><path d="M-139.984375 85.5 C-39.75922915295493 85.5, 60.46591669409014 85.5, 139.984375 85.5 M-139.984375 85.5 C-47.65169497312395 85.5, 44.680985053752096 85.5, 139.984375 85.5 M139.984375 85.5 C139.984375 101.80709267416515, 139.984375 118.1141853483303, 139.984375 128.25 M139.984375 85.5 C139.984375 101.94795570560805, 139.984375 118.39591141121609, 139.984375 128.25 M139.984375 128.25 C33.47919187650908 128.25, -73.02599124698185 128.25, -139.984375 128.25 M139.984375 128.25 C82.26729936058254 128.25, 24.550223721165068 128.25, -139.984375 128.25 M-139.984375 128.25 C-139.984375 117.35594340033225, -139.984375 106.46188680066449, -139.984375 85.5 M-139.984375 128.25 C-139.984375 112.64407541749452, -139.984375 97.03815083498905, -139.984375 85.5" stroke="#13540c" stroke-width="1.3" fill="none" stroke-dasharray="0 0"/></g><g style="" class="row-rect-even"><path d="M-139.984375 128.25 L139.984375 128.25 L139.984375 171 L-139.984375 171" stroke="none" stroke-width="0" fill="hsl(78.1578947368, 58.4615384615%, 94.5098039216%)"/><path d="M-139.984375 128.25 C-37.48288670496085 128.25, 65.0186015900783 128.25, 139.984375 128.25 M-139.984375 128.25 C-63.88598584172445 128.25, 12.212403316551104 128.25, 139.984375 128.25 M139.984375 128.25 C139.984375 144.81798170687034, 139.984375 161.3859634137407, 139.984375 171 M139.984375 128.25 C139.984375 143.29330797618647, 139.984375 158.33661595237294, 139.984375 171 M139.984375 171 C40.48394814274292 171, -59.016478714514164 171, -139.984375 171 M139.984375 171 C43.72687929382869 171, -52.530616412342624 171, -139.984375 171 M-139.984375 171 C-139.984375 156.41506953103297, -139.984375 141.83013906206594, -139.984375 128.25 M-139.984375 171 C-139.984375 155.87995763719033, -139.984375 140.7599152743807, -139.984375 128.25" stroke="#13540c" stroke-width="1.3" fill="none" stroke-dasharray="0 0"/></g><g style="" class="row-rect-odd"><path d="M-139.984375 171 L139.984375 171 L139.984375 213.75 L-139.984375 213.75" stroke="none" stroke-width="0" fill="hsl(78.1578947368, 58.4615384615%, 100%)"/><path d="M-139.984375 171 C-71.18484711412098 171, -2.3853192282419684 171, 139.984375 171 M-139.984375 171 C-55.58920919699136 171, 28.805956606017276 171, 139.984375 171 M139.984375 171 C139.984375 186.1421616073028, 139.984375 201.28432321460556, 139.984375 213.75 M139.984375 171 C139.984375 182.36287056457064, 139.984375 193.72574112914128, 139.984375 213.75 M139.984375 213.75 C74.93840138881234 213.75, 9.892427777624675 213.75, -139.984375 213.75 M139.984375 213.75 C42.98494826684829 213.75, -54.014478466303416 213.75, -139.984375 213.75 M-139.984375 213.75 C-139.984375 201.6604494824368, -139.984375 189.5708989648736, -139.984375 171 M-139.984375 213.75 C-139.984375 198.3706258701342, -139.984375 182.9912517402684, -139.984375 171" stroke="#13540c" stroke-width="1.3" fill="none" stroke-dasharray="0 0"/></g><g class="label name" transform="translate(-16.890625, -204.375)" style=""><foreignObject width="33.78125" height="24"><div xmlns="http://www.w3.org/1999/xhtml" style="display: table-cell; white-space: nowrap; line-height: 1.5; max-width: 131px; text-align: start;"><span class="nodeLabel"><p>User</p></span></div></foreignObject></g><g class="label attribute-type" transform="translate(-127.484375, -161.625)" style=""><foreignObject width="41.796875" height="24"><div xmlns="http://www.w3.org/1999/xhtml" style="display: table-cell; white-space: nowrap; line-height: 1.5; max-width: 139px; text-align: start;"><span class="nodeLabel"><p>String</p></span></div></foreignObject></g><g class="label attribute-name" transform="translate(-23.34375, -161.625)" style=""><foreignObject width="12.453125" height="24"><div xmlns="http://www.w3.org/1999/xhtml" style="display: table-cell; white-space: nowrap; line-height: 1.5; max-width: 112px; text-align: start;"><span class="nodeLabel"><p>id</p></span></div></foreignObject></g><g class="label attribute-keys" transform="translate(107.484375, -161.625)" style=""><foreignObject width="0" height="0"><div xmlns="http://www.w3.org/1999/xhtml" style="display: table-cell; white-space: nowrap; line-height: 1.5; max-width: 100px; text-align: start;"><span class="nodeLabel"></span></div></foreignObject></g><g class="label attribute-comment" transform="translate(107.484375, -161.625)" style=""><foreignObject width="20" height="24"><div xmlns="http://www.w3.org/1999/xhtml" style="display: table-cell; white-space: nowrap; line-height: 1.5; max-width: 120px; text-align: start;"><span class="nodeLabel"><p>🗝️</p></span></div></foreignObject></g><g class="label attribute-type" transform="translate(-127.484375, -118.875)" style=""><foreignObject width="41.796875" height="24"><div xmlns="http://www.w3.org/1999/xhtml" style="display: table-cell; white-space: nowrap; line-height: 1.5; max-width: 139px; text-align: start;"><span class="nodeLabel"><p>String</p></span></div></foreignObject></g><g class="label attribute-name" transform="translate(-23.34375, -118.875)" style=""><foreignObject width="38.234375" height="24"><div xmlns="http://www.w3.org/1999/xhtml" style="display: table-cell; white-space: nowrap; line-height: 1.5; max-width: 136px; text-align: start;"><span class="nodeLabel"><p>email</p></span></div></foreignObject></g><g class="label attribute-keys" transform="translate(107.484375, -118.875)" style=""><foreignObject width="0" height="0"><div xmlns="http://www.w3.org/1999/xhtml" style="display: table-cell; white-space: nowrap; line-height: 1.5; max-width: 100px; text-align: start;"><span class="nodeLabel"></span></div></foreignObject></g><g class="label attribute-comment" transform="translate(107.484375, -118.875)" style=""><foreignObject width="0" height="0"><div xmlns="http://www.w3.org/1999/xhtml" style="display: table-cell; white-space: nowrap; line-height: 1.5; max-width: 100px; text-align: start;"><span class="nodeLabel"></span></div></foreignObject></g><g class="label attribute-type" transform="translate(-127.484375, -76.125)" style=""><foreignObject width="41.796875" height="24"><div xmlns="http://www.w3.org/1999/xhtml" style="display: table-cell; white-space: nowrap; line-height: 1.5; max-width: 139px; text-align: start;"><span class="nodeLabel"><p>String</p></span></div></foreignObject></g><g class="label attribute-name" transform="translate(-23.34375, -76.125)" style=""><foreignObject width="105.828125" height="24"><div xmlns="http://www.w3.org/1999/xhtml" style="display: table-cell; white-space: nowrap; line-height: 1.5; max-width: 193px; text-align: start;"><span class="nodeLabel"><p>passwordHash</p></span></div></foreignObject></g><g class="label attribute-keys" transform="translate(107.484375, -76.125)" style=""><foreignObject width="0" height="0"><div xmlns="http://www.w3.org/1999/xhtml" style="display: table-cell; white-space: nowrap; line-height: 1.5; max-width: 100px; text-align: start;"><span class="nodeLabel"></span></div></foreignObject></g><g class="label attribute-comment" transform="translate(107.484375, -76.125)" style=""><foreignObject width="0" height="0"><div xmlns="http://www.w3.org/1999/xhtml" style="display: table-cell; white-space: nowrap; line-height: 1.5; max-width: 100px; text-align: start;"><span class="nodeLabel"></span></div></foreignObject></g><g class="label attribute-type" transform="translate(-127.484375, -33.375)" style=""><foreignObject width="41.796875" height="24"><div xmlns="http://www.w3.org/1999/xhtml" style="display: table-cell; white-space: nowrap; line-height: 1.5; max-width: 139px; text-align: start;"><span class="nodeLabel"><p>String</p></span></div></foreignObject></g><g class="label attribute-name" transform="translate(-23.34375, -33.375)" style=""><foreignObject width="68.453125" height="24"><div xmlns="http://www.w3.org/1999/xhtml" style="display: table-cell; white-space: nowrap; line-height: 1.5; max-width: 164px; text-align: start;"><span class="nodeLabel"><p>firstName</p></span></div></foreignObject></g><g class="label attribute-keys" transform="translate(107.484375, -33.375)" style=""><foreignObject width="0" height="0"><div xmlns="http://www.w3.org/1999/xhtml" style="display: table-cell; white-space: nowrap; line-height: 1.5; max-width: 100px; text-align: start;"><span class="nodeLabel"></span></div></foreignObject></g><g class="label attribute-comment" transform="translate(107.484375, -33.375)" style=""><foreignObject width="0" height="0"><div xmlns="http://www.w3.org/1999/xhtml" style="display: table-cell; white-space: nowrap; line-height: 1.5; max-width: 100px; text-align: start;"><span class="nodeLabel"></span></div></foreignObject></g><g class="label attribute-type" transform="translate(-127.484375, 9.375)" style=""><foreignObject width="41.796875" height="24"><div xmlns="http://www.w3.org/1999/xhtml" style="display: table-cell; white-space: nowrap; line-height: 1.5; max-width: 139px; text-align: start;"><span class="nodeLabel"><p>String</p></span></div></foreignObject></g><g class="label attribute-name" transform="translate(-23.34375, 9.375)" style=""><foreignObject width="67.578125" height="24"><div xmlns="http://www.w3.org/1999/xhtml" style="display: table-cell; white-space: nowrap; line-height: 1.5; max-width: 160px; text-align: start;"><span class="nodeLabel"><p>lastName</p></span></div></foreignObject></g><g class="label attribute-keys" transform="translate(107.484375, 9.375)" style=""><foreignObject width="0" height="0"><div xmlns="http://www.w3.org/1999/xhtml" style="display: table-cell; white-space: nowrap; line-height: 1.5; max-width: 100px; text-align: start;"><span class="nodeLabel"></span></div></foreignObject></g><g class="label attribute-comment" transform="translate(107.484375, 9.375)" style=""><foreignObject width="0" height="0"><div xmlns="http://www.w3.org/1999/xhtml" style="display: table-cell; white-space: nowrap; line-height: 1.5; max-width: 100px; text-align: start;"><span class="nodeLabel"></span></div></foreignObject></g><g class="label attribute-type" transform="translate(-127.484375, 52.125)" style=""><foreignObject width="32.90625" height="24"><div xmlns="http://www.w3.org/1999/xhtml" style="display: table-cell; white-space: nowrap; line-height: 1.5; max-width: 130px; text-align: start;"><span class="nodeLabel"><p>Role</p></span></div></foreignObject></g><g class="label attribute-name" transform="translate(-23.34375, 52.125)" style=""><foreignObject width="26.6875" height="24"><div xmlns="http://www.w3.org/1999/xhtml" style="display: table-cell; white-space: nowrap; line-height: 1.5; max-width: 125px; text-align: start;"><span class="nodeLabel"><p>role</p></span></div></foreignObject></g><g class="label attribute-keys" transform="translate(107.484375, 52.125)" style=""><foreignObject width="0" height="0"><div xmlns="http://www.w3.org/1999/xhtml" style="display: table-cell; white-space: nowrap; line-height: 1.5; max-width: 100px; text-align: start;"><span class="nodeLabel"></span></div></foreignObject></g><g class="label attribute-comment" transform="translate(107.484375, 52.125)" style=""><foreignObject width="0" height="0"><div xmlns="http://www.w3.org/1999/xhtml" style="display: table-cell; white-space: nowrap; line-height: 1.5; max-width: 100px; text-align: start;"><span class="nodeLabel"></span></div></foreignObject></g><g class="label attribute-type" transform="translate(-127.484375, 94.875)" style=""><foreignObject width="79.140625" height="24"><div xmlns="http://www.w3.org/1999/xhtml" style="display: table-cell; white-space: nowrap; line-height: 1.5; max-width: 169px; text-align: start;"><span class="nodeLabel"><p>UserStatus</p></span></div></foreignObject></g><g class="label attribute-name" transform="translate(-23.34375, 94.875)" style=""><foreignObject width="42.6875" height="24"><div xmlns="http://www.w3.org/1999/xhtml" style="display: table-cell; white-space: nowrap; line-height: 1.5; max-width: 136px; text-align: start;"><span class="nodeLabel"><p>status</p></span></div></foreignObject></g><g class="label attribute-keys" transform="translate(107.484375, 94.875)" style=""><foreignObject width="0" height="0"><div xmlns="http://www.w3.org/1999/xhtml" style="display: table-cell; white-space: nowrap; line-height: 1.5; max-width: 100px; text-align: start;"><span class="nodeLabel"></span></div></foreignObject></g><g class="label attribute-comment" transform="translate(107.484375, 94.875)" style=""><foreignObject width="0" height="0"><div xmlns="http://www.w3.org/1999/xhtml" style="display: table-cell; white-space: nowrap; line-height: 1.5; max-width: 100px; text-align: start;"><span class="nodeLabel"></span></div></foreignObject></g><g class="label attribute-type" transform="translate(-127.484375, 137.625)" style=""><foreignObject width="68.765625" height="24"><div xmlns="http://www.w3.org/1999/xhtml" style="display: table-cell; white-space: nowrap; line-height: 1.5; max-width: 163px; text-align: start;"><span class="nodeLabel"><p>DateTime</p></span></div></foreignObject></g><g class="label attribute-name" transform="translate(-23.34375, 137.625)" style=""><foreignObject width="68.484375" height="24"><div xmlns="http://www.w3.org/1999/xhtml" style="display: table-cell; white-space: nowrap; line-height: 1.5; max-width: 163px; text-align: start;"><span class="nodeLabel"><p>createdAt</p></span></div></foreignObject></g><g class="label attribute-keys" transform="translate(107.484375, 137.625)" style=""><foreignObject width="0" height="0"><div xmlns="http://www.w3.org/1999/xhtml" style="display: table-cell; white-space: nowrap; line-height: 1.5; max-width: 100px; text-align: start;"><span class="nodeLabel"></span></div></foreignObject></g><g class="label attribute-comment" transform="translate(107.484375, 137.625)" style=""><foreignObject width="0" height="0"><div xmlns="http://www.w3.org/1999/xhtml" style="display: table-cell; white-space: nowrap; line-height: 1.5; max-width: 100px; text-align: start;"><span class="nodeLabel"></span></div></foreignObject></g><g class="label attribute-type" transform="translate(-127.484375, 180.375)" style=""><foreignObject width="68.765625" height="24"><div xmlns="http://www.w3.org/1999/xhtml" style="display: table-cell; white-space: nowrap; line-height: 1.5; max-width: 163px; text-align: start;"><span class="nodeLabel"><p>DateTime</p></span></div></foreignObject></g><g class="label attribute-name" transform="translate(-23.34375, 180.375)" style=""><foreignObject width="72.953125" height="24"><div xmlns="http://www.w3.org/1999/xhtml" style="display: table-cell; white-space: nowrap; line-height: 1.5; max-width: 167px; text-align: start;"><span class="nodeLabel"><p>updatedAt</p></span></div></foreignObject></g><g class="label attribute-keys" transform="translate(107.484375, 180.375)" style=""><foreignObject width="0" height="0"><div xmlns="http://www.w3.org/1999/xhtml" style="display: table-cell; white-space: nowrap; line-height: 1.5; max-width: 100px; text-align: start;"><span class="nodeLabel"></span></div></foreignObject></g><g class="label attribute-comment" transform="translate(107.484375, 180.375)" style=""><foreignObject width="0" height="0"><div xmlns="http://www.w3.org/1999/xhtml" style="display: table-cell; white-space: nowrap; line-height: 1.5; max-width: 100px; text-align: start;"><span class="nodeLabel"></span></div></foreignObject></g><g class="divider"><path d="M-139.984375 -171 C-48.54427482040502 -171, 42.895825359189956 -171, 139.984375 -171 M-139.984375 -171 C-58.98785669613795 -171, 22.008661607724093 -171, 139.984375 -171" stroke="#13540c" stroke-width="1.3" fill="none" stroke-dasharray="0 0"/></g><g class="divider"><path d="M-35.84375 -171 C-35.84375 -42.43616735893727, -35.84375 86.12766528212546, -35.84375 213.75 M-35.84375 -171 C-35.84375 -36.81330194044858, -35.84375 97.37339611910284, -35.84375 213.75" stroke="#13540c" stroke-width="1.3" fill="none" stroke-dasharray="0 0"/></g><g class="divider"><path d="M94.984375 -171 C94.984375 -27.35284497606304, 94.984375 116.29431004787392, 94.984375 213.75 M94.984375 -171 C94.984375 -39.51006556259648, 94.984375 91.97986887480704, 94.984375 213.75" stroke="#13540c" stroke-width="1.3" fill="none" stroke-dasharray="0 0"/></g><g class="divider"><path d="M-139.984375 -171 C-66.11881168395647 -171, 7.746751632087069 -171, 139.984375 -171 M-139.984375 -171 C-41.37986599781276 -171, 57.224643004374485 -171, 139.984375 -171" stroke="#13540c" stroke-width="1.3" fill="none" stroke-dasharray="0 0"/></g></g></g></g></g></svg>