<svg id="my-svg" width="100%" xmlns="http://www.w3.org/2000/svg" xmlns:xlink="http://www.w3.org/1999/xlink" class="erDiagram" style="max-width: 753.844px; background-color: white;" viewBox="0 0 753.84375 1115.75" role="graphics-document document" aria-roledescription="er"><style>#my-svg{font-family:"trebuchet ms",verdana,arial,sans-serif;font-size:16px;fill:#000000;}@keyframes edge-animation-frame{from{stroke-dashoffset:0;}}@keyframes dash{to{stroke-dashoffset:0;}}#my-svg .edge-animation-slow{stroke-dasharray:9,5!important;stroke-dashoffset:900;animation:dash 50s linear infinite;stroke-linecap:round;}#my-svg .edge-animation-fast{stroke-dasharray:9,5!important;stroke-dashoffset:900;animation:dash 20s linear infinite;stroke-linecap:round;}#my-svg .error-icon{fill:#552222;}#my-svg .error-text{fill:#552222;stroke:#552222;}#my-svg .edge-thickness-normal{stroke-width:1px;}#my-svg .edge-thickness-thick{stroke-width:3.5px;}#my-svg .edge-pattern-solid{stroke-dasharray:0;}#my-svg .edge-thickness-invisible{stroke-width:0;fill:none;}#my-svg .edge-pattern-dashed{stroke-dasharray:3;}#my-svg .edge-pattern-dotted{stroke-dasharray:2;}#my-svg .marker{fill:#000000;stroke:#000000;}#my-svg .marker.cross{stroke:#000000;}#my-svg svg{font-family:"trebuchet ms",verdana,arial,sans-serif;font-size:16px;}#my-svg p{margin:0;}#my-svg .entityBox{fill:#cde498;stroke:#13540c;}#my-svg .relationshipLabelBox{fill:hsl(78.1578947368, 58.4615384615%, 84.5098039216%);opacity:0.7;background-color:hsl(78.1578947368, 58.4615384615%, 84.5098039216%);}#my-svg .relationshipLabelBox rect{opacity:0.5;}#my-svg .labelBkg{background-color:rgba(224.6153846155, 238.5923076923, 192.4076923078, 0.5);}#my-svg .edgeLabel .label{fill:#13540c;font-size:14px;}#my-svg .label{font-family:"trebuchet ms",verdana,arial,sans-serif;color:#000000;}#my-svg .edge-pattern-dashed{stroke-dasharray:8,8;}#my-svg .node rect,#my-svg .node circle,#my-svg .node ellipse,#my-svg .node polygon{fill:#cde498;stroke:#13540c;stroke-width:1px;}#my-svg .relationshipLine{stroke:#000000;stroke-width:1;fill:none;}#my-svg .marker{fill:none!important;stroke:#000000!important;stroke-width:1;}#my-svg :root{--mermaid-font-family:"trebuchet ms",verdana,arial,sans-serif;}</style><g><defs><marker id="my-svg_er-onlyOneStart" class="marker onlyOne er" refX="0" refY="9" markerWidth="18" markerHeight="18" orient="auto"><path d="M9,0 L9,18 M15,0 L15,18"/></marker></defs><defs><marker id="my-svg_er-onlyOneEnd" class="marker onlyOne er" refX="18" refY="9" markerWidth="18" markerHeight="18" orient="auto"><path d="M3,0 L3,18 M9,0 L9,18"/></marker></defs><defs><marker id="my-svg_er-zeroOrOneStart" class="marker zeroOrOne er" refX="0" refY="9" markerWidth="30" markerHeight="18" orient="auto"><circle fill="white" cx="21" cy="9" r="6"/><path d="M9,0 L9,18"/></marker></defs><defs><marker id="my-svg_er-zeroOrOneEnd" class="marker zeroOrOne er" refX="30" refY="9" markerWidth="30" markerHeight="18" orient="auto"><circle fill="white" cx="9" cy="9" r="6"/><path d="M21,0 L21,18"/></marker></defs><defs><marker id="my-svg_er-oneOrMoreStart" class="marker oneOrMore er" refX="18" refY="18" markerWidth="45" markerHeight="36" orient="auto"><path d="M0,18 Q 18,0 36,18 Q 18,36 0,18 M42,9 L42,27"/></marker></defs><defs><marker id="my-svg_er-oneOrMoreEnd" class="marker oneOrMore er" refX="27" refY="18" markerWidth="45" markerHeight="36" orient="auto"><path d="M3,9 L3,27 M9,18 Q27,0 45,18 Q27,36 9,18"/></marker></defs><defs><marker id="my-svg_er-zeroOrMoreStart" class="marker zeroOrMore er" refX="18" refY="18" markerWidth="57" markerHeight="36" orient="auto"><circle fill="white" cx="48" cy="18" r="6"/><path d="M0,18 Q18,0 36,18 Q18,36 0,18"/></marker></defs><defs><marker id="my-svg_er-zeroOrMoreEnd" class="marker zeroOrMore er" refX="39" refY="18" markerWidth="57" markerHeight="36" orient="auto"><circle fill="white" cx="9" cy="18" r="6"/><path d="M21,18 Q39,0 57,18 Q39,36 21,18"/></marker></defs><g class="root"><g class="clusters"/><g class="edgePaths"><path d="M372.545,221.75L370.456,230.167C368.366,238.583,364.187,255.417,363.342,272.25C362.497,289.083,364.986,305.917,366.23,314.333L367.474,322.75" id="id_entity-Account-2_entity-User-3_0" class="edge-thickness-normal edge-pattern-solid relationshipLine" style="undefined;;;undefined" data-edge="true" data-et="edge" data-id="id_entity-Account-2_entity-User-3_0" data-points="W3sieCI6MzcyLjU0NTA2OTI1MTM5LCJ5IjoyMjEuNzV9LHsieCI6MzYwLjAwNzgxMjUsInkiOjI3Mi4yNX0seyJ4IjozNjcuNDc0NDE5MDUxNTYxMDMsInkiOjMyMi43NX1d" marker-start="url(#my-svg_er-zeroOrOneStart)" marker-end="url(#my-svg_er-onlyOneEnd)"/><path d="M399.078,221.75L399.078,230.167C399.078,238.583,399.078,255.417,399.078,272.25C399.078,289.083,399.078,305.917,399.078,314.333L399.078,322.75" id="id_entity-Account-2_entity-User-3_1" class="edge-thickness-normal edge-pattern-solid relationshipLine" style="undefined;;;undefined" data-edge="true" data-et="edge" data-id="id_entity-Account-2_entity-User-3_1" data-points="W3sieCI6Mzk5LjA3ODEyNSwieSI6MjIxLjc1fSx7IngiOjM5OS4wNzgxMjUsInkiOjI3Mi4yNX0seyJ4IjozOTkuMDc4MTI1LCJ5IjozMjIuNzV9XQ==" marker-start="url(#my-svg_er-zeroOrMoreStart)" marker-end="url(#my-svg_er-zeroOrMoreEnd)"/><path d="M259.094,707.174L246.302,722.77C233.51,738.366,207.927,769.558,195.135,793.571C182.344,817.583,182.344,834.417,182.344,842.833L182.344,851.25" id="id_entity-User-3_entity-Role-0_2" class="edge-thickness-normal edge-pattern-solid relationshipLine" style="undefined;;;undefined" data-edge="true" data-et="edge" data-id="id_entity-User-3_entity-Role-0_2" data-points="W3sieCI6MjU5LjA5Mzc1LCJ5Ijo3MDcuMTczNzYxODA1MjA1MX0seyJ4IjoxODIuMzQzNzUsInkiOjgwMC43NX0seyJ4IjoxODIuMzQzNzUsInkiOjg1MS4yNX1d" marker-start="url(#my-svg_er-zeroOrOneStart)" marker-end="url(#my-svg_er-onlyOneEnd)"/><path d="M539.063,702.985L552.763,719.279C566.464,735.573,593.865,768.162,607.565,799.997C621.266,831.833,621.266,862.917,621.266,878.458L621.266,894" id="id_entity-User-3_entity-UserStatus-1_3" class="edge-thickness-normal edge-pattern-solid relationshipLine" style="undefined;;;undefined" data-edge="true" data-et="edge" data-id="id_entity-User-3_entity-UserStatus-1_3" data-points="W3sieCI6NTM5LjA2MjUsInkiOjcwMi45ODQ5MzMxOTI2ODY0fSx7IngiOjYyMS4yNjU2MjUsInkiOjgwMC43NX0seyJ4Ijo2MjEuMjY1NjI1LCJ5Ijo4OTR9XQ==" marker-start="url(#my-svg_er-zeroOrOneStart)" marker-end="url(#my-svg_er-onlyOneEnd)"/><path d="M435.093,322.75L436.511,314.333C437.929,305.917,440.765,289.083,439.802,272.25C438.839,255.417,434.077,238.583,431.696,230.167L429.314,221.75" id="id_entity-User-3_entity-Account-2_4" class="edge-thickness-normal edge-pattern-solid relationshipLine" style="undefined;;;undefined" data-edge="true" data-et="edge" data-id="id_entity-User-3_entity-Account-2_4" data-points="W3sieCI6NDM1LjA5MjgyNjA5OTgxMDgsInkiOjMyMi43NX0seyJ4Ijo0NDMuNjAxNTYyNSwieSI6MjcyLjI1fSx7IngiOjQyOS4zMTQ0NTQ2NzYzMzA0LCJ5IjoyMjEuNzV9XQ==" marker-start="url(#my-svg_er-zeroOrOneStart)" marker-end="url(#my-svg_er-zeroOrOneEnd)"/></g><g class="edgeLabels"><g class="edgeLabel" transform="translate(360.0078125, 272.25)"><g class="label" data-id="id_entity-Account-2_entity-User-3_0" transform="translate(-19.0703125, -10.5)"><foreignObject width="38.140625" height="21"><div xmlns="http://www.w3.org/1999/xhtml" class="labelBkg" style="display: table-cell; white-space: nowrap; line-height: 1.5; max-width: 200px; text-align: center;"><span class="edgeLabel"><p>owner</p></span></div></foreignObject></g></g><g class="edgeLabel"><g class="label" data-id="id_entity-Account-2_entity-User-3_1" transform="translate(0, 0)"><foreignObject width="0" height="0"><div xmlns="http://www.w3.org/1999/xhtml" class="labelBkg" style="display: table-cell; white-space: nowrap; line-height: 1.5; max-width: 200px; text-align: center;"><span class="edgeLabel"></span></div></foreignObject></g></g><g class="edgeLabel" transform="translate(182.34375, 800.75)"><g class="label" data-id="id_entity-User-3_entity-Role-0_2" transform="translate(-31.1328125, -10.5)"><foreignObject width="62.265625" height="21"><div xmlns="http://www.w3.org/1999/xhtml" class="labelBkg" style="display: table-cell; white-space: nowrap; line-height: 1.5; max-width: 200px; text-align: center;"><span class="edgeLabel"><p>enum:role</p></span></div></foreignObject></g></g><g class="edgeLabel" transform="translate(621.265625, 800.75)"><g class="label" data-id="id_entity-User-3_entity-UserStatus-1_3" transform="translate(-38.1328125, -10.5)"><foreignObject width="76.265625" height="21"><div xmlns="http://www.w3.org/1999/xhtml" class="labelBkg" style="display: table-cell; white-space: nowrap; line-height: 1.5; max-width: 200px; text-align: center;"><span class="edgeLabel"><p>enum:status</p></span></div></foreignObject></g></g><g class="edgeLabel" transform="translate(443.6015625, 272.25)"><g class="label" data-id="id_entity-User-3_entity-Account-2_4" transform="translate(-24.5234375, -10.5)"><foreignObject width="49.046875" height="21"><div xmlns="http://www.w3.org/1999/xhtml" class="labelBkg" style="display: table-cell; white-space: nowrap; line-height: 1.5; max-width: 200px; text-align: center;"><span class="edgeLabel"><p>account</p></span></div></foreignObject></g></g></g><g class="nodes"><g class="node default" id="entity-Role-0" transform="translate(182.34375, 979.5)"><g style=""><path d="M-174.34375 -128.25 L174.34375 -128.25 L174.34375 128.25 L-174.34375 128.25" stroke="none" stroke-width="0" fill="#cde498"/><path d="M-174.34375 -128.25 C-67.06146726884703 -128.25, 40.22081546230595 -128.25, 174.34375 -128.25 M-174.34375 -128.25 C-74.78897987690445 -128.25, 24.765790246191102 -128.25, 174.34375 -128.25 M174.34375 -128.25 C174.34375 -29.465513881835008, 174.34375 69.31897223632998, 174.34375 128.25 M174.34375 -128.25 C174.34375 -52.78444837569427, 174.34375 22.681103248611464, 174.34375 128.25 M174.34375 128.25 C53.86464931963235 128.25, -66.6144513607353 128.25, -174.34375 128.25 M174.34375 128.25 C67.86752122857627 128.25, -38.60870754284747 128.25, -174.34375 128.25 M-174.34375 128.25 C-174.34375 32.91106714201284, -174.34375 -62.42786571597432, -174.34375 -128.25 M-174.34375 128.25 C-174.34375 53.54208646803606, -174.34375 -21.16582706392788, -174.34375 -128.25" stroke="#13540c" stroke-width="1.3" fill="none" stroke-dasharray="0 0"/></g><g style="" class="row-rect-odd"><path d="M-174.34375 -85.5 L174.34375 -85.5 L174.34375 -42.75 L-174.34375 -42.75" stroke="none" stroke-width="0" fill="hsl(78.1578947368, 58.4615384615%, 100%)"/><path d="M-174.34375 -85.5 C-64.8704431498842 -85.5, 44.60286370023161 -85.5, 174.34375 -85.5 M-174.34375 -85.5 C-90.58226035100776 -85.5, -6.820770702015523 -85.5, 174.34375 -85.5 M174.34375 -85.5 C174.34375 -70.58671852715894, 174.34375 -55.673437054317866, 174.34375 -42.75 M174.34375 -85.5 C174.34375 -69.15315725192237, 174.34375 -52.80631450384474, 174.34375 -42.75 M174.34375 -42.75 C56.700032467016285 -42.75, -60.94368506596743 -42.75, -174.34375 -42.75 M174.34375 -42.75 C80.92509132113939 -42.75, -12.493567357721219 -42.75, -174.34375 -42.75 M-174.34375 -42.75 C-174.34375 -58.704548057752454, -174.34375 -74.65909611550491, -174.34375 -85.5 M-174.34375 -42.75 C-174.34375 -56.16674497200588, -174.34375 -69.58348994401176, -174.34375 -85.5" stroke="#13540c" stroke-width="1.3" fill="none" stroke-dasharray="0 0"/></g><g style="" class="row-rect-even"><path d="M-174.34375 -42.75 L174.34375 -42.75 L174.34375 0 L-174.34375 0" stroke="none" stroke-width="0" fill="hsl(78.1578947368, 58.4615384615%, 94.5098039216%)"/><path d="M-174.34375 -42.75 C-94.05192884037496 -42.75, -13.760107680749911 -42.75, 174.34375 -42.75 M-174.34375 -42.75 C-69.52763240614559 -42.75, 35.28848518770883 -42.75, 174.34375 -42.75 M174.34375 -42.75 C174.34375 -31.434211802587406, 174.34375 -20.118423605174808, 174.34375 0 M174.34375 -42.75 C174.34375 -33.34674629771505, 174.34375 -23.943492595430097, 174.34375 0 M174.34375 0 C38.27130065353535 0, -97.8011486929293 0, -174.34375 0 M174.34375 0 C73.69901220076086 0, -26.945725598478276 0, -174.34375 0 M-174.34375 0 C-174.34375 -14.600927217299642, -174.34375 -29.201854434599284, -174.34375 -42.75 M-174.34375 0 C-174.34375 -17.075213398754535, -174.34375 -34.15042679750907, -174.34375 -42.75" stroke="#13540c" stroke-width="1.3" fill="none" stroke-dasharray="0 0"/></g><g style="" class="row-rect-odd"><path d="M-174.34375 0 L174.34375 0 L174.34375 42.75 L-174.34375 42.75" stroke="none" stroke-width="0" fill="hsl(78.1578947368, 58.4615384615%, 100%)"/><path d="M-174.34375 0 C-87.30995173516779 0, -0.27615347033557214 0, 174.34375 0 M-174.34375 0 C-44.80934248506617 0, 84.72506502986766 0, 174.34375 0 M174.34375 0 C174.34375 9.768171441918557, 174.34375 19.536342883837115, 174.34375 42.75 M174.34375 0 C174.34375 9.595523280709807, 174.34375 19.191046561419615, 174.34375 42.75 M174.34375 42.75 C40.163846737733905 42.75, -94.01605652453219 42.75, -174.34375 42.75 M174.34375 42.75 C83.08078280724794 42.75, -8.182184385504115 42.75, -174.34375 42.75 M-174.34375 42.75 C-174.34375 28.25704729588761, -174.34375 13.764094591775216, -174.34375 0 M-174.34375 42.75 C-174.34375 31.16619858272293, -174.34375 19.58239716544586, -174.34375 0" stroke="#13540c" stroke-width="1.3" fill="none" stroke-dasharray="0 0"/></g><g style="" class="row-rect-even"><path d="M-174.34375 42.75 L174.34375 42.75 L174.34375 85.5 L-174.34375 85.5" stroke="none" stroke-width="0" fill="hsl(78.1578947368, 58.4615384615%, 94.5098039216%)"/><path d="M-174.34375 42.75 C-37.48030142810205 42.75, 99.3831471437959 42.75, 174.34375 42.75 M-174.34375 42.75 C-74.98234002745316 42.75, 24.379069945093676 42.75, 174.34375 42.75 M174.34375 42.75 C174.34375 58.93992823666116, 174.34375 75.12985647332232, 174.34375 85.5 M174.34375 42.75 C174.34375 51.91636956752922, 174.34375 61.082739135058446, 174.34375 85.5 M174.34375 85.5 C77.75849432616002 85.5, -18.826761347679962 85.5, -174.34375 85.5 M174.34375 85.5 C102.08127010304597 85.5, 29.818790206091933 85.5, -174.34375 85.5 M-174.34375 85.5 C-174.34375 76.5162144276897, -174.34375 67.53242885537941, -174.34375 42.75 M-174.34375 85.5 C-174.34375 74.1577438939172, -174.34375 62.81548778783439, -174.34375 42.75" stroke="#13540c" stroke-width="1.3" fill="none" stroke-dasharray="0 0"/></g><g style="" class="row-rect-odd"><path d="M-174.34375 85.5 L174.34375 85.5 L174.34375 128.25 L-174.34375 128.25" stroke="none" stroke-width="0" fill="hsl(78.1578947368, 58.4615384615%, 100%)"/><path d="M-174.34375 85.5 C-44.191488922838715 85.5, 85.96077215432257 85.5, 174.34375 85.5 M-174.34375 85.5 C-85.8087321183622 85.5, 2.726285763275598 85.5, 174.34375 85.5 M174.34375 85.5 C174.34375 100.22537501029856, 174.34375 114.95075002059713, 174.34375 128.25 M174.34375 85.5 C174.34375 96.47529863066057, 174.34375 107.45059726132115, 174.34375 128.25 M174.34375 128.25 C71.72627169308196 128.25, -30.89120661383609 128.25, -174.34375 128.25 M174.34375 128.25 C84.24727496771187 128.25, -5.849200064576252 128.25, -174.34375 128.25 M-174.34375 128.25 C-174.34375 118.65550012585311, -174.34375 109.0610002517062, -174.34375 85.5 M-174.34375 128.25 C-174.34375 112.72609154379893, -174.34375 97.20218308759787, -174.34375 85.5" stroke="#13540c" stroke-width="1.3" fill="none" stroke-dasharray="0 0"/></g><g class="label name" transform="translate(-16.453125, -118.875)" style=""><foreignObject width="32.90625" height="24"><div xmlns="http://www.w3.org/1999/xhtml" style="display: table-cell; white-space: nowrap; line-height: 1.5; max-width: 130px; text-align: start;"><span class="nodeLabel"><p>Role</p></span></div></foreignObject></g><g class="label attribute-type" transform="translate(-161.84375, -76.125)" style=""><foreignObject width="115.578125" height="24"><div xmlns="http://www.w3.org/1999/xhtml" style="display: table-cell; white-space: nowrap; line-height: 1.5; max-width: 216px; text-align: start;"><span class="nodeLabel"><p>SUPER_ADMIN</p></span></div></foreignObject></g><g class="label attribute-name" transform="translate(12.5, -76.125)" style=""><foreignObject width="115.578125" height="24"><div xmlns="http://www.w3.org/1999/xhtml" style="display: table-cell; white-space: nowrap; line-height: 1.5; max-width: 216px; text-align: start;"><span class="nodeLabel"><p>SUPER_ADMIN</p></span></div></foreignObject></g><g class="label attribute-keys" transform="translate(186.84375, -76.125)" style=""><foreignObject width="0" height="0"><div xmlns="http://www.w3.org/1999/xhtml" style="display: table-cell; white-space: nowrap; line-height: 1.5; max-width: 100px; text-align: start;"><span class="nodeLabel"></span></div></foreignObject></g><g class="label attribute-comment" transform="translate(186.84375, -76.125)" style=""><foreignObject width="0" height="0"><div xmlns="http://www.w3.org/1999/xhtml" style="display: table-cell; white-space: nowrap; line-height: 1.5; max-width: 100px; text-align: start;"><span class="nodeLabel"></span></div></foreignObject></g><g class="label attribute-type" transform="translate(-161.84375, -33.375)" style=""><foreignObject width="51.5625" height="24"><div xmlns="http://www.w3.org/1999/xhtml" style="display: table-cell; white-space: nowrap; line-height: 1.5; max-width: 155px; text-align: start;"><span class="nodeLabel"><p>ADMIN</p></span></div></foreignObject></g><g class="label attribute-name" transform="translate(12.5, -33.375)" style=""><foreignObject width="51.5625" height="24"><div xmlns="http://www.w3.org/1999/xhtml" style="display: table-cell; white-space: nowrap; line-height: 1.5; max-width: 155px; text-align: start;"><span class="nodeLabel"><p>ADMIN</p></span></div></foreignObject></g><g class="label attribute-keys" transform="translate(186.84375, -33.375)" style=""><foreignObject width="0" height="0"><div xmlns="http://www.w3.org/1999/xhtml" style="display: table-cell; white-space: nowrap; line-height: 1.5; max-width: 100px; text-align: start;"><span class="nodeLabel"></span></div></foreignObject></g><g class="label attribute-comment" transform="translate(186.84375, -33.375)" style=""><foreignObject width="0" height="0"><div xmlns="http://www.w3.org/1999/xhtml" style="display: table-cell; white-space: nowrap; line-height: 1.5; max-width: 100px; text-align: start;"><span class="nodeLabel"></span></div></foreignObject></g><g class="label attribute-type" transform="translate(-161.84375, 9.375)" style=""><foreignObject width="60.15625" height="24"><div xmlns="http://www.w3.org/1999/xhtml" style="display: table-cell; white-space: nowrap; line-height: 1.5; max-width: 159px; text-align: start;"><span class="nodeLabel"><p>EDITOR</p></span></div></foreignObject></g><g class="label attribute-name" transform="translate(12.5, 9.375)" style=""><foreignObject width="60.15625" height="24"><div xmlns="http://www.w3.org/1999/xhtml" style="display: table-cell; white-space: nowrap; line-height: 1.5; max-width: 159px; text-align: start;"><span class="nodeLabel"><p>EDITOR</p></span></div></foreignObject></g><g class="label attribute-keys" transform="translate(186.84375, 9.375)" style=""><foreignObject width="0" height="0"><div xmlns="http://www.w3.org/1999/xhtml" style="display: table-cell; white-space: nowrap; line-height: 1.5; max-width: 100px; text-align: start;"><span class="nodeLabel"></span></div></foreignObject></g><g class="label attribute-comment" transform="translate(186.84375, 9.375)" style=""><foreignObject width="0" height="0"><div xmlns="http://www.w3.org/1999/xhtml" style="display: table-cell; white-space: nowrap; line-height: 1.5; max-width: 100px; text-align: start;"><span class="nodeLabel"></span></div></foreignObject></g><g class="label attribute-type" transform="translate(-161.84375, 52.125)" style=""><foreignObject width="149.34375" height="24"><div xmlns="http://www.w3.org/1999/xhtml" style="display: table-cell; white-space: nowrap; line-height: 1.5; max-width: 249px; text-align: start;"><span class="nodeLabel"><p>ACCOUNT_OWNER</p></span></div></foreignObject></g><g class="label attribute-name" transform="translate(12.5, 52.125)" style=""><foreignObject width="149.34375" height="24"><div xmlns="http://www.w3.org/1999/xhtml" style="display: table-cell; white-space: nowrap; line-height: 1.5; max-width: 249px; text-align: start;"><span class="nodeLabel"><p>ACCOUNT_OWNER</p></span></div></foreignObject></g><g class="label attribute-keys" transform="translate(186.84375, 52.125)" style=""><foreignObject width="0" height="0"><div xmlns="http://www.w3.org/1999/xhtml" style="display: table-cell; white-space: nowrap; line-height: 1.5; max-width: 100px; text-align: start;"><span class="nodeLabel"></span></div></foreignObject></g><g class="label attribute-comment" transform="translate(186.84375, 52.125)" style=""><foreignObject width="0" height="0"><div xmlns="http://www.w3.org/1999/xhtml" style="display: table-cell; white-space: nowrap; line-height: 1.5; max-width: 100px; text-align: start;"><span class="nodeLabel"></span></div></foreignObject></g><g class="label attribute-type" transform="translate(-161.84375, 94.875)" style=""><foreignObject width="70.234375" height="24"><div xmlns="http://www.w3.org/1999/xhtml" style="display: table-cell; white-space: nowrap; line-height: 1.5; max-width: 170px; text-align: start;"><span class="nodeLabel"><p>MEMBER</p></span></div></foreignObject></g><g class="label attribute-name" transform="translate(12.5, 94.875)" style=""><foreignObject width="70.234375" height="24"><div xmlns="http://www.w3.org/1999/xhtml" style="display: table-cell; white-space: nowrap; line-height: 1.5; max-width: 170px; text-align: start;"><span class="nodeLabel"><p>MEMBER</p></span></div></foreignObject></g><g class="label attribute-keys" transform="translate(186.84375, 94.875)" style=""><foreignObject width="0" height="0"><div xmlns="http://www.w3.org/1999/xhtml" style="display: table-cell; white-space: nowrap; line-height: 1.5; max-width: 100px; text-align: start;"><span class="nodeLabel"></span></div></foreignObject></g><g class="label attribute-comment" transform="translate(186.84375, 94.875)" style=""><foreignObject width="0" height="0"><div xmlns="http://www.w3.org/1999/xhtml" style="display: table-cell; white-space: nowrap; line-height: 1.5; max-width: 100px; text-align: start;"><span class="nodeLabel"></span></div></foreignObject></g><g class="divider"><path d="M-174.34375 -85.5 C-102.5020239259901 -85.5, -30.660297851980204 -85.5, 174.34375 -85.5 M-174.34375 -85.5 C-94.17673789114622 -85.5, -14.009725782292435 -85.5, 174.34375 -85.5" stroke="#13540c" stroke-width="1.3" fill="none" stroke-dasharray="0 0"/></g><g class="divider"><path d="M0 -85.5 C0 -1.6583786516951875, 0 82.18324269660962, 0 128.25 M0 -85.5 C0 -13.25836003485037, 0 58.98327993029926, 0 128.25" stroke="#13540c" stroke-width="1.3" fill="none" stroke-dasharray="0 0"/></g><g class="divider"><path d="M-174.34375 -85.5 C-56.39780055699687 -85.5, 61.54814888600626 -85.5, 174.34375 -85.5 M-174.34375 -85.5 C-94.75492516618304 -85.5, -15.166100332366085 -85.5, 174.34375 -85.5" stroke="#13540c" stroke-width="1.3" fill="none" stroke-dasharray="0 0"/></g></g><g class="node default" id="entity-UserStatus-1" transform="translate(621.265625, 979.5)"><g style=""><path d="M-124.578125 -85.5 L124.578125 -85.5 L124.578125 85.5 L-124.578125 85.5" stroke="none" stroke-width="0" fill="#cde498"/><path d="M-124.578125 -85.5 C-57.594733322702865 -85.5, 9.38865835459427 -85.5, 124.578125 -85.5 M-124.578125 -85.5 C-28.834903206792447 -85.5, 66.9083185864151 -85.5, 124.578125 -85.5 M124.578125 -85.5 C124.578125 -43.12444075918698, 124.578125 -0.7488815183739632, 124.578125 85.5 M124.578125 -85.5 C124.578125 -23.66387919158536, 124.578125 38.17224161682928, 124.578125 85.5 M124.578125 85.5 C48.48244413195857 85.5, -27.613236736082854 85.5, -124.578125 85.5 M124.578125 85.5 C34.001232243905775 85.5, -56.57566051218845 85.5, -124.578125 85.5 M-124.578125 85.5 C-124.578125 35.70641085107463, -124.578125 -14.087178297850741, -124.578125 -85.5 M-124.578125 85.5 C-124.578125 28.594903237970705, -124.578125 -28.31019352405859, -124.578125 -85.5" stroke="#13540c" stroke-width="1.3" fill="none" stroke-dasharray="0 0"/></g><g style="" class="row-rect-odd"><path d="M-124.578125 -42.75 L124.578125 -42.75 L124.578125 0 L-124.578125 0" stroke="none" stroke-width="0" fill="hsl(78.1578947368, 58.4615384615%, 100%)"/><path d="M-124.578125 -42.75 C-34.17324903771545 -42.75, 56.2316269245691 -42.75, 124.578125 -42.75 M-124.578125 -42.75 C-32.0559459652107 -42.75, 60.46623306957861 -42.75, 124.578125 -42.75 M124.578125 -42.75 C124.578125 -29.084610540470052, 124.578125 -15.419221080940108, 124.578125 0 M124.578125 -42.75 C124.578125 -27.815276960508328, 124.578125 -12.880553921016652, 124.578125 0 M124.578125 0 C26.500218687166353 0, -71.5776876256673 0, -124.578125 0 M124.578125 0 C66.85966023934422 0, 9.141195478688445 0, -124.578125 0 M-124.578125 0 C-124.578125 -10.250416533649693, -124.578125 -20.500833067299386, -124.578125 -42.75 M-124.578125 0 C-124.578125 -13.031653541568646, -124.578125 -26.063307083137293, -124.578125 -42.75" stroke="#13540c" stroke-width="1.3" fill="none" stroke-dasharray="0 0"/></g><g style="" class="row-rect-even"><path d="M-124.578125 0 L124.578125 0 L124.578125 42.75 L-124.578125 42.75" stroke="none" stroke-width="0" fill="hsl(78.1578947368, 58.4615384615%, 94.5098039216%)"/><path d="M-124.578125 0 C-42.71565034810688 0, 39.146824303786246 0, 124.578125 0 M-124.578125 0 C-73.3770626414933 0, -22.17600028298658 0, 124.578125 0 M124.578125 0 C124.578125 8.896174508734514, 124.578125 17.79234901746903, 124.578125 42.75 M124.578125 0 C124.578125 11.907180618151319, 124.578125 23.814361236302638, 124.578125 42.75 M124.578125 42.75 C57.79166310200972 42.75, -8.994798795980557 42.75, -124.578125 42.75 M124.578125 42.75 C60.98323408329465 42.75, -2.6116568334107058 42.75, -124.578125 42.75 M-124.578125 42.75 C-124.578125 25.942847944242214, -124.578125 9.135695888484427, -124.578125 0 M-124.578125 42.75 C-124.578125 27.625682160821153, -124.578125 12.501364321642306, -124.578125 0" stroke="#13540c" stroke-width="1.3" fill="none" stroke-dasharray="0 0"/></g><g style="" class="row-rect-odd"><path d="M-124.578125 42.75 L124.578125 42.75 L124.578125 85.5 L-124.578125 85.5" stroke="none" stroke-width="0" fill="hsl(78.1578947368, 58.4615384615%, 100%)"/><path d="M-124.578125 42.75 C-60.11146617463055 42.75, 4.3551926507389 42.75, 124.578125 42.75 M-124.578125 42.75 C-60.971732341614405 42.75, 2.634660316771189 42.75, 124.578125 42.75 M124.578125 42.75 C124.578125 54.3443498996713, 124.578125 65.9386997993426, 124.578125 85.5 M124.578125 42.75 C124.578125 54.46598909520768, 124.578125 66.18197819041536, 124.578125 85.5 M124.578125 85.5 C51.18370960890971 85.5, -22.210705782180582 85.5, -124.578125 85.5 M124.578125 85.5 C49.49869828402113 85.5, -25.580728431957738 85.5, -124.578125 85.5 M-124.578125 85.5 C-124.578125 68.70508863914807, -124.578125 51.91017727829614, -124.578125 42.75 M-124.578125 85.5 C-124.578125 71.61460909614992, -124.578125 57.72921819229984, -124.578125 42.75" stroke="#13540c" stroke-width="1.3" fill="none" stroke-dasharray="0 0"/></g><g class="label name" transform="translate(-39.5703125, -76.125)" style=""><foreignObject width="79.140625" height="24"><div xmlns="http://www.w3.org/1999/xhtml" style="display: table-cell; white-space: nowrap; line-height: 1.5; max-width: 169px; text-align: start;"><span class="nodeLabel"><p>UserStatus</p></span></div></foreignObject></g><g class="label attribute-type" transform="translate(-112.078125, -33.375)" style=""><foreignObject width="63.125" height="24"><div xmlns="http://www.w3.org/1999/xhtml" style="display: table-cell; white-space: nowrap; line-height: 1.5; max-width: 165px; text-align: start;"><span class="nodeLabel"><p>INVITED</p></span></div></foreignObject></g><g class="label attribute-name" transform="translate(12.5, -33.375)" style=""><foreignObject width="63.125" height="24"><div xmlns="http://www.w3.org/1999/xhtml" style="display: table-cell; white-space: nowrap; line-height: 1.5; max-width: 165px; text-align: start;"><span class="nodeLabel"><p>INVITED</p></span></div></foreignObject></g><g class="label attribute-keys" transform="translate(137.078125, -33.375)" style=""><foreignObject width="0" height="0"><div xmlns="http://www.w3.org/1999/xhtml" style="display: table-cell; white-space: nowrap; line-height: 1.5; max-width: 100px; text-align: start;"><span class="nodeLabel"></span></div></foreignObject></g><g class="label attribute-comment" transform="translate(137.078125, -33.375)" style=""><foreignObject width="0" height="0"><div xmlns="http://www.w3.org/1999/xhtml" style="display: table-cell; white-space: nowrap; line-height: 1.5; max-width: 100px; text-align: start;"><span class="nodeLabel"></span></div></foreignObject></g><g class="label attribute-type" transform="translate(-112.078125, 9.375)" style=""><foreignObject width="57.796875" height="24"><div xmlns="http://www.w3.org/1999/xhtml" style="display: table-cell; white-space: nowrap; line-height: 1.5; max-width: 159px; text-align: start;"><span class="nodeLabel"><p>ACTIVE</p></span></div></foreignObject></g><g class="label attribute-name" transform="translate(12.5, 9.375)" style=""><foreignObject width="57.796875" height="24"><div xmlns="http://www.w3.org/1999/xhtml" style="display: table-cell; white-space: nowrap; line-height: 1.5; max-width: 159px; text-align: start;"><span class="nodeLabel"><p>ACTIVE</p></span></div></foreignObject></g><g class="label attribute-keys" transform="translate(137.078125, 9.375)" style=""><foreignObject width="0" height="0"><div xmlns="http://www.w3.org/1999/xhtml" style="display: table-cell; white-space: nowrap; line-height: 1.5; max-width: 100px; text-align: start;"><span class="nodeLabel"></span></div></foreignObject></g><g class="label attribute-comment" transform="translate(137.078125, 9.375)" style=""><foreignObject width="0" height="0"><div xmlns="http://www.w3.org/1999/xhtml" style="display: table-cell; white-space: nowrap; line-height: 1.5; max-width: 100px; text-align: start;"><span class="nodeLabel"></span></div></foreignObject></g><g class="label attribute-type" transform="translate(-112.078125, 52.125)" style=""><foreignObject width="99.578125" height="24"><div xmlns="http://www.w3.org/1999/xhtml" style="display: table-cell; white-space: nowrap; line-height: 1.5; max-width: 192px; text-align: start;"><span class="nodeLabel"><p>SUSPENDED</p></span></div></foreignObject></g><g class="label attribute-name" transform="translate(12.5, 52.125)" style=""><foreignObject width="99.578125" height="24"><div xmlns="http://www.w3.org/1999/xhtml" style="display: table-cell; white-space: nowrap; line-height: 1.5; max-width: 192px; text-align: start;"><span class="nodeLabel"><p>SUSPENDED</p></span></div></foreignObject></g><g class="label attribute-keys" transform="translate(137.078125, 52.125)" style=""><foreignObject width="0" height="0"><div xmlns="http://www.w3.org/1999/xhtml" style="display: table-cell; white-space: nowrap; line-height: 1.5; max-width: 100px; text-align: start;"><span class="nodeLabel"></span></div></foreignObject></g><g class="label attribute-comment" transform="translate(137.078125, 52.125)" style=""><foreignObject width="0" height="0"><div xmlns="http://www.w3.org/1999/xhtml" style="display: table-cell; white-space: nowrap; line-height: 1.5; max-width: 100px; text-align: start;"><span class="nodeLabel"></span></div></foreignObject></g><g class="divider"><path d="M-124.578125 -42.75 C-57.967483991085444 -42.75, 8.643157017829111 -42.75, 124.578125 -42.75 M-124.578125 -42.75 C-45.116521891848876 -42.75, 34.34508121630225 -42.75, 124.578125 -42.75" stroke="#13540c" stroke-width="1.3" fill="none" stroke-dasharray="0 0"/></g><g class="divider"><path d="M0 -42.75 C0 -10.000237212773996, 0 22.749525574452008, 0 85.5 M0 -42.75 C0 -11.245706351774075, 0 20.25858729645185, 0 85.5" stroke="#13540c" stroke-width="1.3" fill="none" stroke-dasharray="0 0"/></g><g class="divider"><path d="M-124.578125 -42.75 C-42.798163847217666 -42.75, 38.98179730556467 -42.75, 124.578125 -42.75 M-124.578125 -42.75 C-27.442889025224318 -42.75, 69.69234694955136 -42.75, 124.578125 -42.75" stroke="#13540c" stroke-width="1.3" fill="none" stroke-dasharray="0 0"/></g></g><g class="node default" id="entity-Account-2" transform="translate(399.078125, 114.875)"><g style=""><path d="M-118.359375 -106.875 L118.359375 -106.875 L118.359375 106.875 L-118.359375 106.875" stroke="none" stroke-width="0" fill="#cde498"/><path d="M-118.359375 -106.875 C-67.1154566448783 -106.875, -15.871538289756586 -106.875, 118.359375 -106.875 M-118.359375 -106.875 C-29.06250352612075 -106.875, 60.2343679477585 -106.875, 118.359375 -106.875 M118.359375 -106.875 C118.359375 -27.669071850578163, 118.359375 51.536856298843674, 118.359375 106.875 M118.359375 -106.875 C118.359375 -25.096855723242825, 118.359375 56.68128855351435, 118.359375 106.875 M118.359375 106.875 C66.53739579014712 106.875, 14.715416580294232 106.875, -118.359375 106.875 M118.359375 106.875 C35.00812085121471 106.875, -48.343133297570574 106.875, -118.359375 106.875 M-118.359375 106.875 C-118.359375 60.36059584216358, -118.359375 13.846191684327167, -118.359375 -106.875 M-118.359375 106.875 C-118.359375 54.84010479155569, -118.359375 2.8052095831113775, -118.359375 -106.875" stroke="#13540c" stroke-width="1.3" fill="none" stroke-dasharray="0 0"/></g><g style="" class="row-rect-odd"><path d="M-118.359375 -64.125 L118.359375 -64.125 L118.359375 -21.375 L-118.359375 -21.375" stroke="none" stroke-width="0" fill="hsl(78.1578947368, 58.4615384615%, 100%)"/><path d="M-118.359375 -64.125 C-44.13722612781736 -64.125, 30.084922744365286 -64.125, 118.359375 -64.125 M-118.359375 -64.125 C-28.015936275919614 -64.125, 62.32750244816077 -64.125, 118.359375 -64.125 M118.359375 -64.125 C118.359375 -52.24218435566197, 118.359375 -40.35936871132394, 118.359375 -21.375 M118.359375 -64.125 C118.359375 -51.86661736248898, 118.359375 -39.60823472497796, 118.359375 -21.375 M118.359375 -21.375 C53.64510839459656 -21.375, -11.069158210806876 -21.375, -118.359375 -21.375 M118.359375 -21.375 C28.51598796244639 -21.375, -61.32739907510722 -21.375, -118.359375 -21.375 M-118.359375 -21.375 C-118.359375 -33.1757829996726, -118.359375 -44.9765659993452, -118.359375 -64.125 M-118.359375 -21.375 C-118.359375 -36.74001938677432, -118.359375 -52.105038773548635, -118.359375 -64.125" stroke="#13540c" stroke-width="1.3" fill="none" stroke-dasharray="0 0"/></g><g style="" class="row-rect-even"><path d="M-118.359375 -21.375 L118.359375 -21.375 L118.359375 21.375 L-118.359375 21.375" stroke="none" stroke-width="0" fill="hsl(78.1578947368, 58.4615384615%, 94.5098039216%)"/><path d="M-118.359375 -21.375 C-48.996384542906895 -21.375, 20.36660591418621 -21.375, 118.359375 -21.375 M-118.359375 -21.375 C-66.9765209503482 -21.375, -15.59366690069642 -21.375, 118.359375 -21.375 M118.359375 -21.375 C118.359375 -4.482950021374698, 118.359375 12.409099957250604, 118.359375 21.375 M118.359375 -21.375 C118.359375 -10.561147324952453, 118.359375 0.25270535009509487, 118.359375 21.375 M118.359375 21.375 C55.700186090918095 21.375, -6.95900281816381 21.375, -118.359375 21.375 M118.359375 21.375 C38.287036492763335 21.375, -41.78530201447333 21.375, -118.359375 21.375 M-118.359375 21.375 C-118.359375 6.940971911712477, -118.359375 -7.493056176575045, -118.359375 -21.375 M-118.359375 21.375 C-118.359375 11.359677683151181, -118.359375 1.3443553663023629, -118.359375 -21.375" stroke="#13540c" stroke-width="1.3" fill="none" stroke-dasharray="0 0"/></g><g style="" class="row-rect-odd"><path d="M-118.359375 21.375 L118.359375 21.375 L118.359375 64.125 L-118.359375 64.125" stroke="none" stroke-width="0" fill="hsl(78.1578947368, 58.4615384615%, 100%)"/><path d="M-118.359375 21.375 C-29.877660103833634 21.375, 58.60405479233273 21.375, 118.359375 21.375 M-118.359375 21.375 C-45.30576099316872 21.375, 27.747853013662564 21.375, 118.359375 21.375 M118.359375 21.375 C118.359375 35.96640533382359, 118.359375 50.55781066764718, 118.359375 64.125 M118.359375 21.375 C118.359375 32.36620288614133, 118.359375 43.35740577228266, 118.359375 64.125 M118.359375 64.125 C62.71998002925849 64.125, 7.080585058516974 64.125, -118.359375 64.125 M118.359375 64.125 C53.461645635677286 64.125, -11.436083728645428 64.125, -118.359375 64.125 M-118.359375 64.125 C-118.359375 47.78298291765999, -118.359375 31.440965835319993, -118.359375 21.375 M-118.359375 64.125 C-118.359375 50.43697327300472, -118.359375 36.748946546009435, -118.359375 21.375" stroke="#13540c" stroke-width="1.3" fill="none" stroke-dasharray="0 0"/></g><g style="" class="row-rect-even"><path d="M-118.359375 64.125 L118.359375 64.125 L118.359375 106.875 L-118.359375 106.875" stroke="none" stroke-width="0" fill="hsl(78.1578947368, 58.4615384615%, 94.5098039216%)"/><path d="M-118.359375 64.125 C-63.76513573882778 64.125, -9.17089647765556 64.125, 118.359375 64.125 M-118.359375 64.125 C-32.943443605396624 64.125, 52.47248778920675 64.125, 118.359375 64.125 M118.359375 64.125 C118.359375 80.86120314090746, 118.359375 97.59740628181493, 118.359375 106.875 M118.359375 64.125 C118.359375 75.22466839891715, 118.359375 86.3243367978343, 118.359375 106.875 M118.359375 106.875 C56.51332277971833 106.875, -5.332729440563341 106.875, -118.359375 106.875 M118.359375 106.875 C62.81306454873691 106.875, 7.266754097473822 106.875, -118.359375 106.875 M-118.359375 106.875 C-118.359375 95.99999086136435, -118.359375 85.12498172272869, -118.359375 64.125 M-118.359375 106.875 C-118.359375 90.116639460469, -118.359375 73.35827892093799, -118.359375 64.125" stroke="#13540c" stroke-width="1.3" fill="none" stroke-dasharray="0 0"/></g><g class="label name" transform="translate(-28.90625, -97.5)" style=""><foreignObject width="57.8125" height="24"><div xmlns="http://www.w3.org/1999/xhtml" style="display: table-cell; white-space: nowrap; line-height: 1.5; max-width: 155px; text-align: start;"><span class="nodeLabel"><p>Account</p></span></div></foreignObject></g><g class="label attribute-type" transform="translate(-105.859375, -54.75)" style=""><foreignObject width="41.796875" height="24"><div xmlns="http://www.w3.org/1999/xhtml" style="display: table-cell; white-space: nowrap; line-height: 1.5; max-width: 139px; text-align: start;"><span class="nodeLabel"><p>String</p></span></div></foreignObject></g><g class="label attribute-name" transform="translate(-12.09375, -54.75)" style=""><foreignObject width="12.453125" height="24"><div xmlns="http://www.w3.org/1999/xhtml" style="display: table-cell; white-space: nowrap; line-height: 1.5; max-width: 112px; text-align: start;"><span class="nodeLabel"><p>id</p></span></div></foreignObject></g><g class="label attribute-keys" transform="translate(85.859375, -54.75)" style=""><foreignObject width="0" height="0"><div xmlns="http://www.w3.org/1999/xhtml" style="display: table-cell; white-space: nowrap; line-height: 1.5; max-width: 100px; text-align: start;"><span class="nodeLabel"></span></div></foreignObject></g><g class="label attribute-comment" transform="translate(85.859375, -54.75)" style=""><foreignObject width="20" height="24"><div xmlns="http://www.w3.org/1999/xhtml" style="display: table-cell; white-space: nowrap; line-height: 1.5; max-width: 120px; text-align: start;"><span class="nodeLabel"><p>🗝️</p></span></div></foreignObject></g><g class="label attribute-type" transform="translate(-105.859375, -12)" style=""><foreignObject width="41.796875" height="24"><div xmlns="http://www.w3.org/1999/xhtml" style="display: table-cell; white-space: nowrap; line-height: 1.5; max-width: 139px; text-align: start;"><span class="nodeLabel"><p>String</p></span></div></foreignObject></g><g class="label attribute-name" transform="translate(-12.09375, -12)" style=""><foreignObject width="40.03125" height="24"><div xmlns="http://www.w3.org/1999/xhtml" style="display: table-cell; white-space: nowrap; line-height: 1.5; max-width: 135px; text-align: start;"><span class="nodeLabel"><p>name</p></span></div></foreignObject></g><g class="label attribute-keys" transform="translate(85.859375, -12)" style=""><foreignObject width="0" height="0"><div xmlns="http://www.w3.org/1999/xhtml" style="display: table-cell; white-space: nowrap; line-height: 1.5; max-width: 100px; text-align: start;"><span class="nodeLabel"></span></div></foreignObject></g><g class="label attribute-comment" transform="translate(85.859375, -12)" style=""><foreignObject width="0" height="0"><div xmlns="http://www.w3.org/1999/xhtml" style="display: table-cell; white-space: nowrap; line-height: 1.5; max-width: 100px; text-align: start;"><span class="nodeLabel"></span></div></foreignObject></g><g class="label attribute-type" transform="translate(-105.859375, 30.75)" style=""><foreignObject width="68.765625" height="24"><div xmlns="http://www.w3.org/1999/xhtml" style="display: table-cell; white-space: nowrap; line-height: 1.5; max-width: 163px; text-align: start;"><span class="nodeLabel"><p>DateTime</p></span></div></foreignObject></g><g class="label attribute-name" transform="translate(-12.09375, 30.75)" style=""><foreignObject width="68.484375" height="24"><div xmlns="http://www.w3.org/1999/xhtml" style="display: table-cell; white-space: nowrap; line-height: 1.5; max-width: 163px; text-align: start;"><span class="nodeLabel"><p>createdAt</p></span></div></foreignObject></g><g class="label attribute-keys" transform="translate(85.859375, 30.75)" style=""><foreignObject width="0" height="0"><div xmlns="http://www.w3.org/1999/xhtml" style="display: table-cell; white-space: nowrap; line-height: 1.5; max-width: 100px; text-align: start;"><span class="nodeLabel"></span></div></foreignObject></g><g class="label attribute-comment" transform="translate(85.859375, 30.75)" style=""><foreignObject width="0" height="0"><div xmlns="http://www.w3.org/1999/xhtml" style="display: table-cell; white-space: nowrap; line-height: 1.5; max-width: 100px; text-align: start;"><span class="nodeLabel"></span></div></foreignObject></g><g class="label attribute-type" transform="translate(-105.859375, 73.5)" style=""><foreignObject width="68.765625" height="24"><div xmlns="http://www.w3.org/1999/xhtml" style="display: table-cell; white-space: nowrap; line-height: 1.5; max-width: 163px; text-align: start;"><span class="nodeLabel"><p>DateTime</p></span></div></foreignObject></g><g class="label attribute-name" transform="translate(-12.09375, 73.5)" style=""><foreignObject width="72.953125" height="24"><div xmlns="http://www.w3.org/1999/xhtml" style="display: table-cell; white-space: nowrap; line-height: 1.5; max-width: 167px; text-align: start;"><span class="nodeLabel"><p>updatedAt</p></span></div></foreignObject></g><g class="label attribute-keys" transform="translate(85.859375, 73.5)" style=""><foreignObject width="0" height="0"><div xmlns="http://www.w3.org/1999/xhtml" style="display: table-cell; white-space: nowrap; line-height: 1.5; max-width: 100px; text-align: start;"><span class="nodeLabel"></span></div></foreignObject></g><g class="label attribute-comment" transform="translate(85.859375, 73.5)" style=""><foreignObject width="0" height="0"><div xmlns="http://www.w3.org/1999/xhtml" style="display: table-cell; white-space: nowrap; line-height: 1.5; max-width: 100px; text-align: start;"><span class="nodeLabel"></span></div></foreignObject></g><g class="divider"><path d="M-118.359375 -64.125 C-65.60721286954549 -64.125, -12.85505073909097 -64.125, 118.359375 -64.125 M-118.359375 -64.125 C-61.348032380764934 -64.125, -4.336689761529868 -64.125, 118.359375 -64.125" stroke="#13540c" stroke-width="1.3" fill="none" stroke-dasharray="0 0"/></g><g class="divider"><path d="M-24.59375 -64.125 C-24.59375 -11.45588536870391, -24.59375 41.21322926259218, -24.59375 106.875 M-24.59375 -64.125 C-24.59375 -24.920154484934727, -24.59375 14.284691030130546, -24.59375 106.875" stroke="#13540c" stroke-width="1.3" fill="none" stroke-dasharray="0 0"/></g><g class="divider"><path d="M73.359375 -64.125 C73.359375 -19.971595104829248, 73.359375 24.181809790341504, 73.359375 106.875 M73.359375 -64.125 C73.359375 -29.560143355068973, 73.359375 5.004713289862053, 73.359375 106.875" stroke="#13540c" stroke-width="1.3" fill="none" stroke-dasharray="0 0"/></g><g class="divider"><path d="M-118.359375 -64.125 C-32.50170887825219 -64.125, 53.355957243495624 -64.125, 118.359375 -64.125 M-118.359375 -64.125 C-28.445507428266595 -64.125, 61.46836014346681 -64.125, 118.359375 -64.125" stroke="#13540c" stroke-width="1.3" fill="none" stroke-dasharray="0 0"/></g></g><g class="node default" id="entity-User-3" transform="translate(399.078125, 536.5)"><g style=""><path d="M-139.984375 -213.75 L139.984375 -213.75 L139.984375 213.75 L-139.984375 213.75" stroke="none" stroke-width="0" fill="#cde498"/><path d="M-139.984375 -213.75 C-35.254308288568865 -213.75, 69.47575842286227 -213.75, 139.984375 -213.75 M-139.984375 -213.75 C-34.695859271527596 -213.75, 70.59265645694481 -213.75, 139.984375 -213.75 M139.984375 -213.75 C139.984375 -66.28463178343895, 139.984375 81.18073643312209, 139.984375 213.75 M139.984375 -213.75 C139.984375 -77.21229239237655, 139.984375 59.32541521524689, 139.984375 213.75 M139.984375 213.75 C41.89422857609452 213.75, -56.19591784781096 213.75, -139.984375 213.75 M139.984375 213.75 C50.629250436046604 213.75, -38.72587412790679 213.75, -139.984375 213.75 M-139.984375 213.75 C-139.984375 114.90691898742195, -139.984375 16.063837974843892, -139.984375 -213.75 M-139.984375 213.75 C-139.984375 53.34363285749316, -139.984375 -107.06273428501368, -139.984375 -213.75" stroke="#13540c" stroke-width="1.3" fill="none" stroke-dasharray="0 0"/></g><g style="" class="row-rect-odd"><path d="M-139.984375 -171 L139.984375 -171 L139.984375 -128.25 L-139.984375 -128.25" stroke="none" stroke-width="0" fill="hsl(78.1578947368, 58.4615384615%, 100%)"/><path d="M-139.984375 -171 C-55.824963033294026 -171, 28.33444893341195 -171, 139.984375 -171 M-139.984375 -171 C-68.8354291218892 -171, 2.3135167562215884 -171, 139.984375 -171 M139.984375 -171 C139.984375 -158.02035039265584, 139.984375 -145.04070078531169, 139.984375 -128.25 M139.984375 -171 C139.984375 -156.4993186088497, 139.984375 -141.99863721769944, 139.984375 -128.25 M139.984375 -128.25 C81.04288221271139 -128.25, 22.10138942542278 -128.25, -139.984375 -128.25 M139.984375 -128.25 C54.48359013214451 -128.25, -31.017194735710973 -128.25, -139.984375 -128.25 M-139.984375 -128.25 C-139.984375 -140.83285429133878, -139.984375 -153.41570858267758, -139.984375 -171 M-139.984375 -128.25 C-139.984375 -137.19693223845456, -139.984375 -146.14386447690916, -139.984375 -171" stroke="#13540c" stroke-width="1.3" fill="none" stroke-dasharray="0 0"/></g><g style="" class="row-rect-even"><path d="M-139.984375 -128.25 L139.984375 -128.25 L139.984375 -85.5 L-139.984375 -85.5" stroke="none" stroke-width="0" fill="hsl(78.1578947368, 58.4615384615%, 94.5098039216%)"/><path d="M-139.984375 -128.25 C-40.66574135527914 -128.25, 58.65289228944172 -128.25, 139.984375 -128.25 M-139.984375 -128.25 C-38.90727748325473 -128.25, 62.16982003349054 -128.25, 139.984375 -128.25 M139.984375 -128.25 C139.984375 -119.28887592594063, 139.984375 -110.32775185188125, 139.984375 -85.5 M139.984375 -128.25 C139.984375 -118.19308966065208, 139.984375 -108.13617932130414, 139.984375 -85.5 M139.984375 -85.5 C34.11447491381027 -85.5, -71.75542517237946 -85.5, -139.984375 -85.5 M139.984375 -85.5 C41.473469945585194 -85.5, -57.03743510882961 -85.5, -139.984375 -85.5 M-139.984375 -85.5 C-139.984375 -96.74171780145053, -139.984375 -107.98343560290105, -139.984375 -128.25 M-139.984375 -85.5 C-139.984375 -100.31904252469208, -139.984375 -115.13808504938416, -139.984375 -128.25" stroke="#13540c" stroke-width="1.3" fill="none" stroke-dasharray="0 0"/></g><g style="" class="row-rect-odd"><path d="M-139.984375 -85.5 L139.984375 -85.5 L139.984375 -42.75 L-139.984375 -42.75" stroke="none" stroke-width="0" fill="hsl(78.1578947368, 58.4615384615%, 100%)"/><path d="M-139.984375 -85.5 C-51.45686832935748 -85.5, 37.07063834128505 -85.5, 139.984375 -85.5 M-139.984375 -85.5 C-38.93884427483917 -85.5, 62.10668645032166 -85.5, 139.984375 -85.5 M139.984375 -85.5 C139.984375 -71.50340634249017, 139.984375 -57.506812684980346, 139.984375 -42.75 M139.984375 -85.5 C139.984375 -72.75154727406863, 139.984375 -60.003094548137256, 139.984375 -42.75 M139.984375 -42.75 C61.49060949145009 -42.75, -17.003156017099826 -42.75, -139.984375 -42.75 M139.984375 -42.75 C42.67365725530064 -42.75, -54.63706048939872 -42.75, -139.984375 -42.75 M-139.984375 -42.75 C-139.984375 -56.50550338180731, -139.984375 -70.26100676361462, -139.984375 -85.5 M-139.984375 -42.75 C-139.984375 -52.60328116743386, -139.984375 -62.456562334867726, -139.984375 -85.5" stroke="#13540c" stroke-width="1.3" fill="none" stroke-dasharray="0 0"/></g><g style="" class="row-rect-even"><path d="M-139.984375 -42.75 L139.984375 -42.75 L139.984375 0 L-139.984375 0" stroke="none" stroke-width="0" fill="hsl(78.1578947368, 58.4615384615%, 94.5098039216%)"/><path d="M-139.984375 -42.75 C-78.71632300603841 -42.75, -17.448271012076816 -42.75, 139.984375 -42.75 M-139.984375 -42.75 C-45.35017510717496 -42.75, 49.284024785650075 -42.75, 139.984375 -42.75 M139.984375 -42.75 C139.984375 -31.864193578565867, 139.984375 -20.97838715713174, 139.984375 0 M139.984375 -42.75 C139.984375 -31.44855551696719, 139.984375 -20.147111033934376, 139.984375 0 M139.984375 0 C64.04696548513466 0, -11.890444029730673 0, -139.984375 0 M139.984375 0 C44.31912709764194 0, -51.34612080471612 0, -139.984375 0 M-139.984375 0 C-139.984375 -11.147944760078229, -139.984375 -22.295889520156457, -139.984375 -42.75 M-139.984375 0 C-139.984375 -15.220316865129899, -139.984375 -30.440633730259798, -139.984375 -42.75" stroke="#13540c" stroke-width="1.3" fill="none" stroke-dasharray="0 0"/></g><g style="" class="row-rect-odd"><path d="M-139.984375 0 L139.984375 0 L139.984375 42.75 L-139.984375 42.75" stroke="none" stroke-width="0" fill="hsl(78.1578947368, 58.4615384615%, 100%)"/><path d="M-139.984375 0 C-71.29792097330613 0, -2.6114669466122677 0, 139.984375 0 M-139.984375 0 C-46.550934315269885 0, 46.88250636946023 0, 139.984375 0 M139.984375 0 C139.984375 17.033760895788888, 139.984375 34.067521791577775, 139.984375 42.75 M139.984375 0 C139.984375 13.90396507759712, 139.984375 27.80793015519424, 139.984375 42.75 M139.984375 42.75 C76.85171131393898 42.75, 13.71904762787797 42.75, -139.984375 42.75 M139.984375 42.75 C53.235028855266506 42.75, -33.51431728946699 42.75, -139.984375 42.75 M-139.984375 42.75 C-139.984375 33.20976929410413, -139.984375 23.669538588208255, -139.984375 0 M-139.984375 42.75 C-139.984375 29.218060456632546, -139.984375 15.686120913265093, -139.984375 0" stroke="#13540c" stroke-width="1.3" fill="none" stroke-dasharray="0 0"/></g><g style="" class="row-rect-even"><path d="M-139.984375 42.75 L139.984375 42.75 L139.984375 85.5 L-139.984375 85.5" stroke="none" stroke-width="0" fill="hsl(78.1578947368, 58.4615384615%, 94.5098039216%)"/><path d="M-139.984375 42.75 C-43.82979435242616 42.75, 52.324786295147675 42.75, 139.984375 42.75 M-139.984375 42.75 C-68.86816628087638 42.75, 2.2480424382472393 42.75, 139.984375 42.75 M139.984375 42.75 C139.984375 56.38630670111442, 139.984375 70.02261340222884, 139.984375 85.5 M139.984375 42.75 C139.984375 57.09597844705978, 139.984375 71.44195689411956, 139.984375 85.5 M139.984375 85.5 C68.06613503936475 85.5, -3.852104921270495 85.5, -139.984375 85.5 M139.984375 85.5 C75.7601706086411 85.5, 11.535966217282208 85.5, -139.984375 85.5 M-139.984375 85.5 C-139.984375 73.26608422368801, -139.984375 61.03216844737604, -139.984375 42.75 M-139.984375 85.5 C-139.984375 73.58933549759793, -139.984375 61.67867099519586, -139.984375 42.75" stroke="#13540c" stroke-width="1.3" fill="none" stroke-dasharray="0 0"/></g><g style="" class="row-rect-odd"><path d="M-139.984375 85.5 L139.984375 85.5 L139.984375 128.25 L-139.984375 128.25" stroke="none" stroke-width="0" fill="hsl(78.1578947368, 58.4615384615%, 100%)"/><path d="M-139.984375 85.5 C-65.7084925362867 85.5, 8.567389927426603 85.5, 139.984375 85.5 M-139.984375 85.5 C-68.41986862886118 85.5, 3.144637742277638 85.5, 139.984375 85.5 M139.984375 85.5 C139.984375 98.34998464542574, 139.984375 111.19996929085147, 139.984375 128.25 M139.984375 85.5 C139.984375 99.9447808777745, 139.984375 114.38956175554901, 139.984375 128.25 M139.984375 128.25 C49.21295536811428 128.25, -41.55846426377144 128.25, -139.984375 128.25 M139.984375 128.25 C29.36823964834467 128.25, -81.24789570331066 128.25, -139.984375 128.25 M-139.984375 128.25 C-139.984375 114.33107003874387, -139.984375 100.41214007748776, -139.984375 85.5 M-139.984375 128.25 C-139.984375 114.35302185896911, -139.984375 100.45604371793824, -139.984375 85.5" stroke="#13540c" stroke-width="1.3" fill="none" stroke-dasharray="0 0"/></g><g style="" class="row-rect-even"><path d="M-139.984375 128.25 L139.984375 128.25 L139.984375 171 L-139.984375 171" stroke="none" stroke-width="0" fill="hsl(78.1578947368, 58.4615384615%, 94.5098039216%)"/><path d="M-139.984375 128.25 C-76.5236217796486 128.25, -13.062868559297186 128.25, 139.984375 128.25 M-139.984375 128.25 C-59.828142135994895 128.25, 20.32809072801021 128.25, 139.984375 128.25 M139.984375 128.25 C139.984375 137.31945143285398, 139.984375 146.38890286570796, 139.984375 171 M139.984375 128.25 C139.984375 141.40514785626328, 139.984375 154.56029571252654, 139.984375 171 M139.984375 171 C28.80138393811164 171, -82.38160712377672 171, -139.984375 171 M139.984375 171 C41.01656454587486 171, -57.951245908250286 171, -139.984375 171 M-139.984375 171 C-139.984375 158.82630218060874, -139.984375 146.65260436121747, -139.984375 128.25 M-139.984375 171 C-139.984375 161.47464730940422, -139.984375 151.94929461880844, -139.984375 128.25" stroke="#13540c" stroke-width="1.3" fill="none" stroke-dasharray="0 0"/></g><g style="" class="row-rect-odd"><path d="M-139.984375 171 L139.984375 171 L139.984375 213.75 L-139.984375 213.75" stroke="none" stroke-width="0" fill="hsl(78.1578947368, 58.4615384615%, 100%)"/><path d="M-139.984375 171 C-45.00297166804249 171, 49.97843166391502 171, 139.984375 171 M-139.984375 171 C-58.500784447347115 171, 22.98280610530577 171, 139.984375 171 M139.984375 171 C139.984375 181.250564578977, 139.984375 191.501129157954, 139.984375 213.75 M139.984375 171 C139.984375 180.54707357608052, 139.984375 190.094147152161, 139.984375 213.75 M139.984375 213.75 C51.51514556818414 213.75, -36.95408386363172 213.75, -139.984375 213.75 M139.984375 213.75 C57.49972413646323 213.75, -24.984926727073542 213.75, -139.984375 213.75 M-139.984375 213.75 C-139.984375 204.4014303219313, -139.984375 195.0528606438626, -139.984375 171 M-139.984375 213.75 C-139.984375 202.6444986496997, -139.984375 191.5389972993994, -139.984375 171" stroke="#13540c" stroke-width="1.3" fill="none" stroke-dasharray="0 0"/></g><g class="label name" transform="translate(-16.890625, -204.375)" style=""><foreignObject width="33.78125" height="24"><div xmlns="http://www.w3.org/1999/xhtml" style="display: table-cell; white-space: nowrap; line-height: 1.5; max-width: 131px; text-align: start;"><span class="nodeLabel"><p>User</p></span></div></foreignObject></g><g class="label attribute-type" transform="translate(-127.484375, -161.625)" style=""><foreignObject width="41.796875" height="24"><div xmlns="http://www.w3.org/1999/xhtml" style="display: table-cell; white-space: nowrap; line-height: 1.5; max-width: 139px; text-align: start;"><span class="nodeLabel"><p>String</p></span></div></foreignObject></g><g class="label attribute-name" transform="translate(-23.34375, -161.625)" style=""><foreignObject width="12.453125" height="24"><div xmlns="http://www.w3.org/1999/xhtml" style="display: table-cell; white-space: nowrap; line-height: 1.5; max-width: 112px; text-align: start;"><span class="nodeLabel"><p>id</p></span></div></foreignObject></g><g class="label attribute-keys" transform="translate(107.484375, -161.625)" style=""><foreignObject width="0" height="0"><div xmlns="http://www.w3.org/1999/xhtml" style="display: table-cell; white-space: nowrap; line-height: 1.5; max-width: 100px; text-align: start;"><span class="nodeLabel"></span></div></foreignObject></g><g class="label attribute-comment" transform="translate(107.484375, -161.625)" style=""><foreignObject width="20" height="24"><div xmlns="http://www.w3.org/1999/xhtml" style="display: table-cell; white-space: nowrap; line-height: 1.5; max-width: 120px; text-align: start;"><span class="nodeLabel"><p>🗝️</p></span></div></foreignObject></g><g class="label attribute-type" transform="translate(-127.484375, -118.875)" style=""><foreignObject width="41.796875" height="24"><div xmlns="http://www.w3.org/1999/xhtml" style="display: table-cell; white-space: nowrap; line-height: 1.5; max-width: 139px; text-align: start;"><span class="nodeLabel"><p>String</p></span></div></foreignObject></g><g class="label attribute-name" transform="translate(-23.34375, -118.875)" style=""><foreignObject width="38.234375" height="24"><div xmlns="http://www.w3.org/1999/xhtml" style="display: table-cell; white-space: nowrap; line-height: 1.5; max-width: 136px; text-align: start;"><span class="nodeLabel"><p>email</p></span></div></foreignObject></g><g class="label attribute-keys" transform="translate(107.484375, -118.875)" style=""><foreignObject width="0" height="0"><div xmlns="http://www.w3.org/1999/xhtml" style="display: table-cell; white-space: nowrap; line-height: 1.5; max-width: 100px; text-align: start;"><span class="nodeLabel"></span></div></foreignObject></g><g class="label attribute-comment" transform="translate(107.484375, -118.875)" style=""><foreignObject width="0" height="0"><div xmlns="http://www.w3.org/1999/xhtml" style="display: table-cell; white-space: nowrap; line-height: 1.5; max-width: 100px; text-align: start;"><span class="nodeLabel"></span></div></foreignObject></g><g class="label attribute-type" transform="translate(-127.484375, -76.125)" style=""><foreignObject width="41.796875" height="24"><div xmlns="http://www.w3.org/1999/xhtml" style="display: table-cell; white-space: nowrap; line-height: 1.5; max-width: 139px; text-align: start;"><span class="nodeLabel"><p>String</p></span></div></foreignObject></g><g class="label attribute-name" transform="translate(-23.34375, -76.125)" style=""><foreignObject width="105.828125" height="24"><div xmlns="http://www.w3.org/1999/xhtml" style="display: table-cell; white-space: nowrap; line-height: 1.5; max-width: 193px; text-align: start;"><span class="nodeLabel"><p>passwordHash</p></span></div></foreignObject></g><g class="label attribute-keys" transform="translate(107.484375, -76.125)" style=""><foreignObject width="0" height="0"><div xmlns="http://www.w3.org/1999/xhtml" style="display: table-cell; white-space: nowrap; line-height: 1.5; max-width: 100px; text-align: start;"><span class="nodeLabel"></span></div></foreignObject></g><g class="label attribute-comment" transform="translate(107.484375, -76.125)" style=""><foreignObject width="0" height="0"><div xmlns="http://www.w3.org/1999/xhtml" style="display: table-cell; white-space: nowrap; line-height: 1.5; max-width: 100px; text-align: start;"><span class="nodeLabel"></span></div></foreignObject></g><g class="label attribute-type" transform="translate(-127.484375, -33.375)" style=""><foreignObject width="41.796875" height="24"><div xmlns="http://www.w3.org/1999/xhtml" style="display: table-cell; white-space: nowrap; line-height: 1.5; max-width: 139px; text-align: start;"><span class="nodeLabel"><p>String</p></span></div></foreignObject></g><g class="label attribute-name" transform="translate(-23.34375, -33.375)" style=""><foreignObject width="68.453125" height="24"><div xmlns="http://www.w3.org/1999/xhtml" style="display: table-cell; white-space: nowrap; line-height: 1.5; max-width: 164px; text-align: start;"><span class="nodeLabel"><p>firstName</p></span></div></foreignObject></g><g class="label attribute-keys" transform="translate(107.484375, -33.375)" style=""><foreignObject width="0" height="0"><div xmlns="http://www.w3.org/1999/xhtml" style="display: table-cell; white-space: nowrap; line-height: 1.5; max-width: 100px; text-align: start;"><span class="nodeLabel"></span></div></foreignObject></g><g class="label attribute-comment" transform="translate(107.484375, -33.375)" style=""><foreignObject width="0" height="0"><div xmlns="http://www.w3.org/1999/xhtml" style="display: table-cell; white-space: nowrap; line-height: 1.5; max-width: 100px; text-align: start;"><span class="nodeLabel"></span></div></foreignObject></g><g class="label attribute-type" transform="translate(-127.484375, 9.375)" style=""><foreignObject width="41.796875" height="24"><div xmlns="http://www.w3.org/1999/xhtml" style="display: table-cell; white-space: nowrap; line-height: 1.5; max-width: 139px; text-align: start;"><span class="nodeLabel"><p>String</p></span></div></foreignObject></g><g class="label attribute-name" transform="translate(-23.34375, 9.375)" style=""><foreignObject width="67.578125" height="24"><div xmlns="http://www.w3.org/1999/xhtml" style="display: table-cell; white-space: nowrap; line-height: 1.5; max-width: 160px; text-align: start;"><span class="nodeLabel"><p>lastName</p></span></div></foreignObject></g><g class="label attribute-keys" transform="translate(107.484375, 9.375)" style=""><foreignObject width="0" height="0"><div xmlns="http://www.w3.org/1999/xhtml" style="display: table-cell; white-space: nowrap; line-height: 1.5; max-width: 100px; text-align: start;"><span class="nodeLabel"></span></div></foreignObject></g><g class="label attribute-comment" transform="translate(107.484375, 9.375)" style=""><foreignObject width="0" height="0"><div xmlns="http://www.w3.org/1999/xhtml" style="display: table-cell; white-space: nowrap; line-height: 1.5; max-width: 100px; text-align: start;"><span class="nodeLabel"></span></div></foreignObject></g><g class="label attribute-type" transform="translate(-127.484375, 52.125)" style=""><foreignObject width="32.90625" height="24"><div xmlns="http://www.w3.org/1999/xhtml" style="display: table-cell; white-space: nowrap; line-height: 1.5; max-width: 130px; text-align: start;"><span class="nodeLabel"><p>Role</p></span></div></foreignObject></g><g class="label attribute-name" transform="translate(-23.34375, 52.125)" style=""><foreignObject width="26.6875" height="24"><div xmlns="http://www.w3.org/1999/xhtml" style="display: table-cell; white-space: nowrap; line-height: 1.5; max-width: 125px; text-align: start;"><span class="nodeLabel"><p>role</p></span></div></foreignObject></g><g class="label attribute-keys" transform="translate(107.484375, 52.125)" style=""><foreignObject width="0" height="0"><div xmlns="http://www.w3.org/1999/xhtml" style="display: table-cell; white-space: nowrap; line-height: 1.5; max-width: 100px; text-align: start;"><span class="nodeLabel"></span></div></foreignObject></g><g class="label attribute-comment" transform="translate(107.484375, 52.125)" style=""><foreignObject width="0" height="0"><div xmlns="http://www.w3.org/1999/xhtml" style="display: table-cell; white-space: nowrap; line-height: 1.5; max-width: 100px; text-align: start;"><span class="nodeLabel"></span></div></foreignObject></g><g class="label attribute-type" transform="translate(-127.484375, 94.875)" style=""><foreignObject width="79.140625" height="24"><div xmlns="http://www.w3.org/1999/xhtml" style="display: table-cell; white-space: nowrap; line-height: 1.5; max-width: 169px; text-align: start;"><span class="nodeLabel"><p>UserStatus</p></span></div></foreignObject></g><g class="label attribute-name" transform="translate(-23.34375, 94.875)" style=""><foreignObject width="42.6875" height="24"><div xmlns="http://www.w3.org/1999/xhtml" style="display: table-cell; white-space: nowrap; line-height: 1.5; max-width: 136px; text-align: start;"><span class="nodeLabel"><p>status</p></span></div></foreignObject></g><g class="label attribute-keys" transform="translate(107.484375, 94.875)" style=""><foreignObject width="0" height="0"><div xmlns="http://www.w3.org/1999/xhtml" style="display: table-cell; white-space: nowrap; line-height: 1.5; max-width: 100px; text-align: start;"><span class="nodeLabel"></span></div></foreignObject></g><g class="label attribute-comment" transform="translate(107.484375, 94.875)" style=""><foreignObject width="0" height="0"><div xmlns="http://www.w3.org/1999/xhtml" style="display: table-cell; white-space: nowrap; line-height: 1.5; max-width: 100px; text-align: start;"><span class="nodeLabel"></span></div></foreignObject></g><g class="label attribute-type" transform="translate(-127.484375, 137.625)" style=""><foreignObject width="68.765625" height="24"><div xmlns="http://www.w3.org/1999/xhtml" style="display: table-cell; white-space: nowrap; line-height: 1.5; max-width: 163px; text-align: start;"><span class="nodeLabel"><p>DateTime</p></span></div></foreignObject></g><g class="label attribute-name" transform="translate(-23.34375, 137.625)" style=""><foreignObject width="68.484375" height="24"><div xmlns="http://www.w3.org/1999/xhtml" style="display: table-cell; white-space: nowrap; line-height: 1.5; max-width: 163px; text-align: start;"><span class="nodeLabel"><p>createdAt</p></span></div></foreignObject></g><g class="label attribute-keys" transform="translate(107.484375, 137.625)" style=""><foreignObject width="0" height="0"><div xmlns="http://www.w3.org/1999/xhtml" style="display: table-cell; white-space: nowrap; line-height: 1.5; max-width: 100px; text-align: start;"><span class="nodeLabel"></span></div></foreignObject></g><g class="label attribute-comment" transform="translate(107.484375, 137.625)" style=""><foreignObject width="0" height="0"><div xmlns="http://www.w3.org/1999/xhtml" style="display: table-cell; white-space: nowrap; line-height: 1.5; max-width: 100px; text-align: start;"><span class="nodeLabel"></span></div></foreignObject></g><g class="label attribute-type" transform="translate(-127.484375, 180.375)" style=""><foreignObject width="68.765625" height="24"><div xmlns="http://www.w3.org/1999/xhtml" style="display: table-cell; white-space: nowrap; line-height: 1.5; max-width: 163px; text-align: start;"><span class="nodeLabel"><p>DateTime</p></span></div></foreignObject></g><g class="label attribute-name" transform="translate(-23.34375, 180.375)" style=""><foreignObject width="72.953125" height="24"><div xmlns="http://www.w3.org/1999/xhtml" style="display: table-cell; white-space: nowrap; line-height: 1.5; max-width: 167px; text-align: start;"><span class="nodeLabel"><p>updatedAt</p></span></div></foreignObject></g><g class="label attribute-keys" transform="translate(107.484375, 180.375)" style=""><foreignObject width="0" height="0"><div xmlns="http://www.w3.org/1999/xhtml" style="display: table-cell; white-space: nowrap; line-height: 1.5; max-width: 100px; text-align: start;"><span class="nodeLabel"></span></div></foreignObject></g><g class="label attribute-comment" transform="translate(107.484375, 180.375)" style=""><foreignObject width="0" height="0"><div xmlns="http://www.w3.org/1999/xhtml" style="display: table-cell; white-space: nowrap; line-height: 1.5; max-width: 100px; text-align: start;"><span class="nodeLabel"></span></div></foreignObject></g><g class="divider"><path d="M-139.984375 -171 C-36.97230832369593 -171, 66.03975835260815 -171, 139.984375 -171 M-139.984375 -171 C-37.9157950608124 -171, 64.1527848783752 -171, 139.984375 -171" stroke="#13540c" stroke-width="1.3" fill="none" stroke-dasharray="0 0"/></g><g class="divider"><path d="M-35.84375 -171 C-35.84375 -73.50443954778251, -35.84375 23.99112090443498, -35.84375 213.75 M-35.84375 -171 C-35.84375 -85.85910658034295, -35.84375 -0.7182131606859059, -35.84375 213.75" stroke="#13540c" stroke-width="1.3" fill="none" stroke-dasharray="0 0"/></g><g class="divider"><path d="M94.984375 -171 C94.984375 -46.127220699528365, 94.984375 78.74555860094327, 94.984375 213.75 M94.984375 -171 C94.984375 -40.742882608509916, 94.984375 89.51423478298017, 94.984375 213.75" stroke="#13540c" stroke-width="1.3" fill="none" stroke-dasharray="0 0"/></g><g class="divider"><path d="M-139.984375 -171 C-66.23300308287367 -171, 7.518368834252669 -171, 139.984375 -171 M-139.984375 -171 C-83.00558126213701 -171, -26.026787524274013 -171, 139.984375 -171" stroke="#13540c" stroke-width="1.3" fill="none" stroke-dasharray="0 0"/></g></g></g></g></g></svg>